<?xml version="1.0" encoding="UTF-8"?><svg xmlns="http://www.w3.org/2000/svg" viewBox="0 0 200 200"><defs><style>.cls-1{fill:#fff;}</style></defs><path class="cls-1" d="m98.3,20.49h1.29c0,.83.65,1.01.89,1.36.53.71,1.89.24,2.83.59,1.89.71,4.55,1.6,6.61,1.6,1.89,0,2.48-.89,4.3-.89,1.13,0,1.77.77,3.07.77.88,0,.88-.29,1.65-.47.41,1.06,1.18,1.83,1.18,2.95,0,.53-.94,2.71-1.18,3.42-1.24-.18-2.24-2.83-3.24-3.84v1l5.6,9.91c-.29,1.24,1.47,3.83,2.36,4.54v3.13c.59,1.59,1.77,1.59,2.66,2.78,1.06,1.41.41,2.95,1.47,4.01.94.94,1.59,1,2.65,1.77.95.71,1.45,3.15,3.4,3.15,0,1.01.55,1.16-.03,1.86.76.59,1.54,2.48,2.53,2.48.95,0,1.01-.77,1.78-1,.88-.3,1.47.12,2.35,0,2.24-.36,4.37-1.24,6.49-1.77.18.35.41.54.41.89,0,3.36-2.66,7.73-4.13,9.73-1.77,2.37-2.53,4.49-4.72,6.2-3.88,3.07-8.08,4.01-9.55,9.26-.41,1.47-1.95,1.88-1.95,3.54,0,1.82.47,2.65.47,4.42,0,2.01,2.19,3.01,2.19,4.13,0,.35-.35.77-.41.88v1.48c0,.94-.18,2.06-.18,3.72.35.35.47.7.47,1.18,0,4.6-7.79,4.07-8.44,7.95-.82.12-1.77,1.12-1.77,1.77,0,1.3,1.66,2.18,1.66,3.95,0,.95-.12,2.89-.47,3.42-.35.47-1.36.24-1.77.41-1.42.71-2.24,1.29-2.95,2.78.53.29.89.71.89,1.24,0,1.64-1.65,2.94-2.36,3.65-1.3,1.3-1.42,2.66-2.36,3.84-1.47,1.89-2.12,3.54-4.54,4.72-1,.47-2.47,0-2.66,1.06-.77.06-1.24.41-1.77.41-.64,0-1-.59-1.65-.59-2.47,0-3.95,1.77-6.19,1.77-1,0-1.53-.53-1.89-1.18-.35.06-.47.24-.59.3,0-1.18-.6-2.47-1.06-2.95.47-.48.77-.94.77-1.59,0-.95-1.65-2.72-1.94-3.25-2.13-3.6-4.84-7.08-4.84-12.27v-1.59c0-.83-.71-1.12-1.18-1.95-1.65-2.77-3.42-5.01-3.42-8.84,0-4.13,3.72-5.13,3.72-8.26,0-1.48-.59-2.07-.77-3.37-.41-2.53-.89-3.42-1.48-4.89-.47-1.18-.24-2.54-1-3.54-1.53-1.95-4.89-4.01-4.89-6.78,0-.65.95-2.13,1.36-2.36-.24-.53,0-.65,0-.88,0-.71,0-2.48.58-2.95-.64-1.3-1.7-2.48-3.71-2.48h-2.48c-1.77,0-2.18-3.43-4.6-3.43-2.95,0-5.13,1.36-7.37,2.07-.89.29-1.18,1.06-2.07,1.06s-2.36-.89-3.53-.89c-2.3,0-3.31,1.18-5.61,1.18-.71,0-1.53-.3-1.77-.48-1.65-1.24-5.07-3.24-6.31-5.13-1.12-1.71-1.47-3.13-2.95-4.31-.41-.29-3.54-3.07-3.54-3.3-.29-.36-.47-.47-.77-.83h.18c0-.89-.3-1.36-.3-1.89,0-.82-.47-1.12-.88-1.95,1.3-.65,2.48-3.83,2.48-5.31,0-2.59-1.18-4.25-1.18-6.6,0-1.18,1.36-1.89,1.65-2.84.76-2.3,2.54-5.42,3.95-7.37.83-1.12,2.36-1,3.42-1.59.88-.52,2.36-1.71,2.65-2.65.71-2.18-.17-3.12,1-4.6,1.53-1.95,3.54-3.78,5.01-5.6h-.12c.47-.59.59-1.12,1.18-1.6,1.47,1.06,3.01,1.48,5.01,1.48,1.24,0,1.47-.71,2.18-1.06,2.3-1.12,6.67-2.77,9.32-2.77.83,0,1.59.59,2.07.59.64,0,1.59-.88,2.47-.88.77,0,1.12.41,1.78.41,1.18,0,1.23-.88,2.36-.88s.82,1.06,1.77,1.06c.35,0,.53-.29.88-.35-.06.88-.88.76-.88,1.54,0,.53.76.77.76,1.3,0,.88-.76,1.35-.76,2.24,0,1.48,1.53,2.77,2.65,2.77h1.65c3.83,0,5.19,4.72,9.55,4.72.53,0,1.18-.59,1.18-.88v-1.18c0-1.89,1.42-1.89,3.25-2.48l.18.11Z"/></svg>