<?xml version="1.0" encoding="UTF-8"?><svg xmlns="http://www.w3.org/2000/svg" viewBox="0 0 200 200"><defs><style>.cls-1{fill:#fff;}</style></defs><path class="cls-1" d="m77.33,16.92l1.77-2.36s-.29-2.36.59-2.66c.89-.3,2.95-1.18,2.95-1.18l4.43-2.07s0-.3,1.18-.59c1.18-.3,2.95-.59,2.95-.59,0,0,1.18-1.48,2.37-1.77,1.18-.3,5.02-.89,5.02-.89,3.55.59,5.02.59,5.91.59s4.43.3,5.32.59c.89.3,4.14.3,5.03,0,.89-.3,1.77-.89,2.95,0,1.19.89-.59-.89,1.19.89,1.77,1.77,2.66,0,2.66,0l1.48.89c1.47.89,4.43,3.55,5.32,3.84.89.3,2.37-.3,2.96.59.59.89,0,1.48,2.36,1.48s5.02.29,5.02.29l6.8.3c1.77,4.14,3.25,4.43,3.25,4.43l4.43,3.84s2.07-2.07,4.44-2.07,2.36-.59,4.13.29c1.78.88,1.18,2.36,2.66,2.36h2.66c.89,0,1.19.3,3.55,1.18,2.36.89,2.36,0,4.13.89,1.77.89,2.37,1.19,2.37,2.07s1.48,7.38,1.48,9.46.59,5.62.59,5.62c0,0-.29.59.59,2.07.89,1.48.89,5.32.89,5.32,0,0-.3.59-.3,2.07s.59,4.73.59,4.73c0,0,.59.89-.29,2.66-.89,1.78-2.66,3.25-2.66,3.25,0,0-1.18.59,0,2.36,1.18,1.77.59.89,2.37,2.66l1.77,1.78,2.37,1.48s.89-.59,3.25.29c2.37.89,2.96,2.07,2.96,2.07,0,0,5.91.3,4.14,2.37-1.77,2.07-1.48,9.16-1.48,9.16,0,0-.29,1.77-.29,2.66s-1.18,2.96-.89,4.14c.29,1.18-1.48-.89.29,1.18,1.77,2.06,6.21,4.73,6.21,4.73,0,0,.59.59-.59,1.18-1.18.59-2.37,1.77-2.37,1.77l-.29,7.69-2.67,5.32s-1.47,0-2.66,1.77c-1.18,1.77-2.96,5.02-2.96,5.02,0,0-1.77-1.48-.59,1.78,1.18,3.25,2.07,5.62.3,7.39-1.77,1.77-3.25,2.07-3.25,2.07l-2.36,1.77-.3,2.07s-2.66,5.62-3.55,7.98c-.89,2.37-3.25,5.32-3.25,5.32,0,0,.29-.3-1.48.59-1.77.89-3.25,2.07-3.25,2.07,0,0-.3,4.14-1.48,4.73l-1.18.59s-2.66,3.25-4.44,3.25-1.77-.59-2.95,0c-1.18.59-6.21,2.66-6.21,2.66,0,0-2.06.29-3.84.89-1.77.59,0,.59-2.95,1.18-2.96.59-3.55.59-5.32.59s-2.07-2.07-4.73-1.48c-2.66.59-2.07.59-4.73.29-2.66-.29-4.43-.29-5.32-.29s-1.18-.89-4.14-.89-4.73.59-5.91.3c-1.18-.3-.3-.59-2.07-1.77-1.78-1.19-.59-.89-2.96-2.07-2.36-1.18-2.66,2.07-2.36-1.18l.3-3.26s1.18-1.47,1.77-3.25c.59-1.78-.59-.3.59-1.78,1.18-1.47,1.18,0,1.18-2.66s1.48-2.07.3-3.84c-1.18-1.77-.59-2.36-1.77-2.95-1.18-.59-2.36-1.77-2.36-1.77,0,0,.88.59-2.07-.59-2.95-1.18-2.07-.59-4.43-1.18-2.36-.59-3.54-.59-4.73-1.48-1.18-.88.3.89-1.18-.88-1.47-1.78-3.25-3.25-3.25-3.25,0,0-.29,0-1.18-.3-.89-.3-2.36-2.07-3.25-1.47-.89.59-1.78,0-3.55.59-1.77.59-3.26,1.18-3.26,1.18l-4.72.3-.89,3.55s0,.89-1.77.89,0-.59-4.14,0c-4.13.59-5.61.59-6.79.59s-1.19-.59-4.73-.89c-3.54-.3-.29,2.36-3.54-.3-3.25-2.66-3.55-1.77-4.14-3.84-.59-2.07.59-1.77-1.77-3.55-2.36-1.77-2.07-1.18-3.55-2.36-1.48-1.18-2.66-1.77-2.66-1.77,0,0-1.77,1.77-2.66-1.77-.89-3.55-1.18-2.96-1.48-4.73-.29-1.77,0-2.07-.29-2.96-.3-.88-.89-1.18-.89-3.84s.29-7.98-3.84-8.27c-4.14-.3-4.44,1.18-6.2-.3-1.78-1.48-2.37-.59-3.26-2.66-.89-2.07-1.18-2.07-1.18-3.25s5.91-7.39,4.73-8.28c-1.18-.89-3.25,1.18-2.07-2.07l1.18-3.25,1.18-2.07s2.37,0,.89-2.36c-1.47-2.37-2.96-1.77-2.67-3.25.3-1.48-.88-.29.3-1.48,1.18-1.18,2.37-1.48,2.66-2.66.3-1.18.89-2.07,0-2.96-.89-.89-.89-1.18-2.07-1.18h-3.54c-1.48,0-.89.89-3.25,0-2.36-.89-2.36.29-2.36-.89s-.3-.88-1.78-2.66c-1.47-1.77-.29-2.36.89-5.02,1.18-2.66,2.06-2.07.29-3.84s-3.25-2.36-3.25-2.36c0,0-2.36.29-2.95-.59-.59-.89,3.84,3.25-.59-.89-4.43-4.14-4.73-1.18-4.73-5.32v-4.14l-3.54-2.66s3.25,2.07,1.18-2.95c-2.07-5.02-.59-4.14-.3-6.51.3-2.36,3.55-5.61,3.55-5.61l.59,1.77s1.77-1.18,1.77.88-1.18,2.66-.88,3.55c.29.89-1.48-.59.29.89,1.77,1.48,0,3.25,0,3.25l-.89,1.18.59,1.48s1.18,1.48,2.95,1.48,2.36.3,2.66,1.18c.29.89.89,2.07.89,2.07,0,0,.3-.29,1.18.29.89.59,3.84,1.18,3.84,1.18,0,0,.59-.29,1.48-.29s2.07,1.77,2.07,1.77c0,0-.89,0,.3,1.18,1.18,1.18,1.47,3.25,1.47,3.25h2.66l9.76,3.25c.29,2.07,2.07,4.13,2.95,4.13s-1.19-.3.88,0c2.07.3,4.14.89,4.14.89l2.66-1.19v-1.18h1.47s3.25-.89,4.14-1.18c.89-.3-4.43,0,.89-.3l5.32-.29s.89-.59,2.37-1.78c1.48-1.18,5.02-3.25,5.02-3.25v-3.84c0-1.18-.3-1.77,0-2.66.29-.89.59-2.36.89-3.25.3-.89,1.48-2.66,1.18-3.55-.29-.88-1.18-1.48-1.48-2.36-.3-.89,1.48-5.02,1.48-5.02,0,0,.89-.59,1.77-.89.89-.29,1.08-3.84,2.27-4.92q1.19-1.08,1.48-1.77c.3-.69.2-.1.3-.69.1-.59-.1-1.28,1.58-1.18Z"/></svg>