<?xml version="1.0" encoding="UTF-8"?><svg xmlns="http://www.w3.org/2000/svg" viewBox="0 0 200 200"><defs><style>.cls-1{fill:#fff;}</style></defs><path class="cls-1" d="m99.93,121.77c-.45-.45-.94-.69-.94-1.54-.45,0-.77-.12-.77-.65l.16-.41c-.08-.17-.2-.37-.36-.37h-.33s.08-.16.08-.2c0-.61-.69-.82-1.3-1.02-1.14-.36-1.58-.89-2.36-1.67-.4-.41-.69-.89-1.3-1.1-.16-.04-.37,0-.45-.21-.33-.65-.61-1.26-1.5-1.55h-1.35c-.33-.17-.41-.37-.81-.37h-.24v.32c.12.41.77,1.55,1.1,1.63.37.08.78,0,.94.37.25.49.37.73.61,1.22.29.57,1.23.41,1.51,1.34.08.33.37,1.3.57,1.42.12.09.61.13.65.21.08.12,0,.36.12.36s.61.81.69,1.01c.45.94.77,1.67,1.59,2.48.73.74,1.46,1.06,2.24,1.83.04.04.77,1.1.98,1.1.29,0,1.1-.12,1.1-.57,0-.41-.2-.98.21-1.14v-1.75c0-.4-.57-.53-.81-.77Z"/><path class="cls-1" d="m106.12,95.4c-.53,0-1.92,1.01-2.24,1.01-.2,0,0,.37,0,.61,0,.53.28.81.9.81s1.83-1.26,1.83-1.83c0-.24-.29-.61-.49-.61Z"/><path class="cls-1" d="m189.83,23.89c-3.22-1.87-7.49-3.87-12.21-3.87-1.3,0-2.21.27-2.04.81,1.26,3.95-1.87-.04-2.65,0l-9.36-.2c-.53-2.12-1.92-2.85-4.68-2.85-1.51,0-3.79.57-4.68-.2-.82-.69-.86-1.67-2.04-2.03-2.48-.82-5.17-1.42-8.34-1.42s-3.62,1.67-3.87,3.25h-6.51c-1.14,0-1.3-.94-2.64-1.02-.12.57-.37,1.83-1.02,1.83-1.71,0-2.44-2.12-2.44-3.26,0-.29,3.29-2.36-5.09-3.05-1.05-.09-1.63.37-1.63,1.63h-4.48c-1.34-.36-8.39-1.18-9.28-2.64-5.34,4.36-4.15,1.63-4.15,1.63,1.26-1.58,13.56-4.9,3.46-7.32h-4.27c-.4-1.14-1.3-2.24-3.05-2.24-2.12,0-2.97,1.59-4.07,2.44-.81.61-6.07,2.73-5.62.81-1.34.4-7.07.79-10.05,3.46-.62.56-.81,2.24-1.75,2.24-1.34,0-6.39-.49-6.39,1.84,0,.49.45.97.61,1.63-.9.57-1.22,0-4.07,0-2.42,3.23-2.2-.49-2.77-1.22-.2,1.3-1.06,1.87-2.12,2.44.33,1.14,2.06,2.33.82,3.67-.86.92,1.65,3.95.33,3.95-1.71,0-2.16-6.15-2.16-7.41,0-1.39,2.26-1.95-1.22-2.64-1.76-.35-5.08,2.52-5.08,4.07,0,1.87.86,3.1,1.83,4.07,2.27,3.54-3.14-.41-5.16-.93-5.57-1.44-3.77.45-3.79.73-.18,3.14-1.51.61-2.24.61-1.26,0-3.84,1.71-5.7.81-.94-2.4-7.04,3.05-8.55,3.05-.49,0-1.2-.36-1.02-.81.63-1.64-.28-5.21-2.03.2-.11.35.61.49.61,1.22,0,1.42-2.11.45-3.25.81-1.14.37-.59,4.26-5.29,2.24v1.63c-2.32-.21-2.03-2.69-2.85-3.87,1.75,0,2.71-.05,4.4.39,2.26.59,6.82-2.24-.13-4.46-1.99-.64-6.39-2.85-7.73-2.85-.12,0-.16-.16-1.1-.04-.57.41-2.03,1.14-2.03,2.07,0,.78,1.43.73,1.43,1.63,0,.7-.74,1.02-.74,1.71,0,.77.81,1.22.81,2.03,0,.49-.41.73-.41,1.22,0,.89,1.22,1.14,1.22,2.03,0,.24-.37.45-.49.53.37.65,1.3.81,1.3,1.71,0,1.34-2.81,2.85-3.67,3.99.33.45.74.65,1.02,1.43-.49.33-1.71.9-2.24.9-.69,0-1.14-.29-2.04-.29s-2.94.83-2.32,1.41c2.06,1.92.98,2.66.49,2.66-.82,0-.94-1.02-1.63-1.02-.73,0-1.63,1.87-1.63,2.85,0,1.59-1.3,1.37-1.39,2.8.54-.06,1.04-.11,1.46-.11.77,0,1.27-.05,2.09-.05s1.26,1.52,1.26,2.42c0,.53-.58.82-.58,1.35,0,.85.78,1.39.78,2.16,0,.49-.78.65-.94.89-.48.73-.65,1.39-.65,2.36,0,1.14.81.89,1.75.89,1.3,0,1.91-.53,2.89-.53,1.1,0,.85,2.12,1.87,2.12v1.67c0,.12.12.2.2.29l.2.24c.2,0,.69-.21.98-.24.89-.24.97-1.3,1.87-1.3.73,0,2.6,3.05,3.17,3.05s2.52-.86,2.85-1.26c-.09,0-1.14-.16-1.14-.16-.17,0-.69-.12-.69-.61,0-.32,2.97-1.42,4.07-1.83,0,0-.53.61-.73.69.08.24,1.14,1.35-1.22,1.95,1.02,2.4,5.7,1.99,5.7,5.21l.17-.02c.24-.11.5-.18.81-.18-1.22,0-1.71,1.1-2.81,1.1h-2.32c-.45-.04-2.04-.32-2.04-.81-.93,0-.89-.61-1.99-.61-.69,0-1.83.04-2.36.36-.45.29-1.18.81-1.67.81h-1.26c-.21,0-.98-.16-.98.2,0,.28.24.16.32.49-.73.37-3.67.12-3.67,1.38,0,.25.41.21.7.21-.08.2,0,.2,0,.49,0,.77-.45.69-.85,1.1.57.28,1.01.24,1.38.78-.41.41.77,1.01,1.02,1.26-.04.08-.21.2-.33.24h.45c.77-.36,1.18.74,1.95.74.73,0,.57-.94,1.42-.94s1.18,1.01,2.03,1.01c1.18,0,1.39-.53,2.04-1.01.17.16.41.33.82.33.32,0,.45-.25.77-.37v.41c-.08.08-.28.16-.28.41,0,.49.2,1.06.2,1.75,0,.94-.81,1.14-1.05,1.96-.25.82-.37,1.26-.66,2.16-.04.17-.32.17-.32.45l.88,2.12c-.04.61-.27,1.41-.27,1.79,0,.12.56.77.69.98.45.69.86,1.3,1.35,2.03.16.24.45.57.57.98.08.24,0,.85.25,1.09.12.12.65.04.81.2.12.13.33.37.53.53.17.77.69.98.69,1.91,0,1.55.34,2.38,1.76,2.7,0,.98,1.13,2.38,1.61,2.87.45.45,1.13.81.93,1.71-.08.37-.39,1.14.05,1.18,0,.78.29,1.44.72,2.08.27.4-.05.41.05.46.11.06,1.15.56,1.27.56l.25-.15c.86,0,.96-.33,1.66-.82h1.26c.53-.25,2.15-1.39,2.64-1.51.98-.24,2.24-.53,3.17-.98-.08-.08-.16-.24-.16-.37,0-.9,2.48-1.35,3.58-1.55,0-.49.77-1.18,1.14-1.18.61,0,.57-1.18,1.18-1.18.49,0,.45-.69.61-1.18.16-.49.57-.65,1.18-.65,0-.98,1.18-1.3,1.18-2.23,0-.37-.57-.29-.78-.65v.04c-.29-.16-.33-.85-.77-.97-1.18-.36-1.95-.57-2.52-1.75v-1.5c-1.47,1.09-1.67,2.77-4.4,2.77-.61,0-1.67-.29-1.67-.86,0-.49.28-.82.28-1.31,0-.16,0-.28-.04-.44-.41.08-.32.61-.81.73-.04-.36-.28-.49-.28-.94-.94-.21-2.08-1.95-2.32-2.93-.09-.33-.09-.53-.09-.93,0-.57.24-1.3.82-1.3,1.14,0,2.04,1.26,2.48,2.16.08.16-.04.49.2.73.45.45,1.1.2,1.58.69.41.41.74.94,1.39,1.14h2.03c.24-.24.41-.61.86-.61.85,0,.85,1.22,1.26,1.63.04.04,1.22.36,1.43.36,1.1,0,2.89.49,3.66.49.04,0,.2.04.2,0l1.43-.08c.08-.08.2-.21.36-.29l1.06.29c.4,0,.53-.32,1.02-.32.45,0,.77-.08,1.22.04.49.17.74,1.1,1.06,1.63.41.61,1.59,1.43,2.4,1.43.33,0,.62,0,.94.08-.17.16-.21.53-.53.61-.37.12-.65-.08-1.02.16.61.61,1.1,1.87,2.36,1.87,1.06,0,1.1-1.38,1.63-1.91h.33c0,.16-.24.45-.24.57,0,.53.4,1.02.4,1.67,0,.51-.18.62-.2,1.16l-.03-.03c0,.12.07.46.07.58,0,.77.45,1.54.69,2.36.29.9,1.02,2.24,1.22,2.85.17.53.17.77.49,1.3.33.49.13,1.02.45,1.67.17.33.73.74.9,1.3.28.86.73,1.67,1.06,2.65.04.12.16.41.37.41.04.29.29.45.61.41.33,0,.37-.49.53-.81.21-.41.29-.24.77-.49.33-.16.2-1.22.78-1.38.12-.04.41-.04.41-.17l.2-.04-.2-1.06c0-.77.49-1.42.49-2.44,0-.65-.29-1.06-.29-1.79,0-.85.86-.98,1.59-1.22.28-.08.73-.57,1.06-.9.77-.77,1.51-1.59,2.32-2.4.65-.65,1.83-.85,2.56-1.59.37-.37.33-.82.49-1.38.12-.37.98-.4,1.26-1.02.33.21.33.41.98.41,1.06,0,2.2-.24,2.2-1.46.61.12,1.31.36,1.46.94.17.48.08,1.14.41,1.63.33.53.78.85,1.34,1.3.41.65.9,1.3,1.18,2.16.04.2.24.32.24.53,0,.45-.2.69-.2,1.22s.04,1.02.65,1.02c1.14,0,1.43-1.18,2.12-1.87.24.25.12.41.37.66.08.08.41,0,.53.2.41.61-.29,1.83.24,1.83,0,1.3,1.06,2.36,1.06,4.15,0,.45-.33,1.38,0,1.55h-.21c-.12.57-.21.98-.21,1.55,0,.08-.08.24,0,.24.37.24.12,0,.53,0,.66,0,.94,1.47,1.22,2.03.45.94.53,1.79.9,2.98.45,1.34,1.59,2.56,2.85,2.97.24.08.28.37.69.37.12,0,.17-.16.29-.16.16,0,.21,0,.53-.04-.2-.45-.2-.65-.36-1.18-.16-.49-.77-.73-.77-1.47,0-.36.16-.36.16-.77,0-2.04-2.4-2.28-3.5-3.38-.28-.28-.32-1.02-.48-1.3h.07c0-1.18-1.38-.69-1.38-1.96,0-1.09,1.18-1.42,1.18-2.64,0-.33-.16-.41-.16-.78,0-.2-.08-.45.25-.45.44,0,.93.08,1.06.53,0,0,.12.53.2.53.65.2,1.22.24,1.79.81.49.49.04,1.1.94,1.1,0,.61.81.81,1.42.81.04.21.12.53.29.62-.16.08-.16.24-.16.57,0,.24.16.81.33.81s.98-.61.98-1.02v-.45c0,.12,0,.36.12.36.49,0,.41-.65.9-.9,1.06-.53,1.18-.97,2.48-1.3,0-.73.49-1.1.49-2.04,0-1.34-.65-3.13-1.63-3.78-1.02-.65-1.43-1.71-2.36-2.65-.16-.16-.37-.24-.37-.61,0-1.75,1.99-2.03,2.81-3.3.7.33,1.18.08,1.96.45-.04.2-.16,1.02.2,1.02.45,0,.21-.53.53-.85.28-.29,1.1-.41,1.42-.57.78-.36,1.55-.2,2.04-.69,0,0,.41-.77.49-.77.4,0,.61.32,1.01.32,1.88,0,2.32-1.14,3.46-1.79.32-.16.53-.32.61-.73.98,0,1.26-1.51,1.63-2.28.24-.49,1.34-2.12,1.96-2.24,0-.9.6-1.3.6-2.48,0-1.75-.4-2.4-1.14-3.5-.12-.2-.12-.69-.49-.89l.04-.04h-.09s-.04-.65-.04-.77c-.33-.04-1.1-.45-1.1-1.02,0-.49.69-.53.86-1.01.37-1.1,2.11-1.1,2.93-1.92-.33-.45-.93,0-1.51-.37-.28-.16-.44-.49-.89-.49-.32,0-.32.9-.57.9-.33,0-.73.12-1.06-.08-.49-.33-.32-.73-.82-1.1-.16-.12-.85-.28-.85-.69,0-.85,1.18-.57,1.75-.98.49-.37,1.43-.98,1.75-1.5.08-.12.25-.53.65-.53.32,0,.77.53.77.77,0,.65-.77.94-.77,1.67,1.14,0,2.07-1.22,3.38-1.22.49,0,.69.44,1.3.44-.21.41,0,.41,0,.9,0,.41-.45.37-.45.86,0,.2.12.69.41.69.12,0,.28-.2.57-.2.49,0,1.1.33,1.1.81,0,.29-.33.53-.65.53v.41c.08.08.16.25.41.29,0,.24.2.45.2.69,0,.13-.36.65-.36.94,0,.16,0,.37.2.4-.04.2-.24.33-.24.53h.6c.25-.24.33-.24.82-.37,0-.37,1.02-.41,1.26-.49.57-.16.81-.61.81-1.55,0-1.58-.61-2.52-1.51-3.41-.36-.37-.77-.73-.7-1.43.49,0,.9-.29,1.23-.61.29-.29,1.02-.69,1.18-1.02.53-1.1.86-1.75,1.83-2.53,0,0,1.58.41,2.84.41,2.32,0,4.51-4.9,6.14-6.53.65-.65,1.55-1.98,1.79-3.04.29-1.18-.19-1.94.44-3.07.23-.42.71-1.34.71-2.24,0-1.1-1.77-3.24-2.58-2.63-2.41,1.82-3.67-.97-3.67-1.22,0-1.14,2.2-2.4,3.05-3.26,1.27-1.26,2.93-3.38,4.68-3.87,1.54-.41,6.39-.81,7.73-.81,1.67,0,2.44.81,3.46.81h2.23c.65-2.69,1.87-4.27,4.68-4.27.74,0,1.06-.21,2.44,0-.69.52-.98,4.06,3.46-1.43.45-.08,2.58.8-.61,2.85-1.11.71-2.12.36-2.85,1.42-.86,1.22-1.63,2.77-2.85,3.46-1.02.57-2.44,1.5-2.44,3.26,0,1.51.49,6.43,1.63,7.33.81-1.22,1.38-3.46,3.05-3.87-.2-1.14,1.63-1.38,1.63-2.24,0-1.34,1.42-1.71,1.42-2.44,0-.49-.4-.99,0-1.83,3.29-7.03,6.31-3.26,7.53-3.26,3.62,0,6.18-4.62,9.35-4.68,6.05-.12,1.22-2.4,1.22-3.05,0-1.76,2.36-1.47,2.85-2.45.2-.4-.2-1.43.61-1.43,2.56,0,4.68,3.46,6.51,3.46.81,0,.98-1.51,1.42-2.04.69-.82,1.34-.73,2.44-1.1-1.46-1.95-6.23-3.05-8.55-4.4ZM37.14,64.67c.77,1.34,1.86,1.88,1.86,3.46.33-.16,1.1-.57,1.39-.61.04.61.69.94.69,1.55h-1.22c-.37,0-.74.41-.81,1.02.85.12,1.42.94,1.42,1.71,0,.45-.29.57-.29.94s.37.81.41.85v.73c-.49.12-1.22.24-1.91.24-.53,0-1.54.08-1.87-.24-.25-.24-.33-.65-.69-.73-.45-.08-.98.16-1.18-.28-.24-.49.12-.82-.2-1.3-.2-.33-.53-.29-.53-.69l.57.08c.49-.65.49-1.63,1.14-1.95-1.1-.61-2.77-3.05-2.77-4.43,0-.41-.9-1.02-.9-1.63,0-.2.78-1.71.98-1.96.2.13,1.42-.57,1.55-.61,1.06-.4,1.71-.69,3.05-.69,2.2,0,2.56,1.06,3.38,2.28-.61.49-1.42.04-2.15.04-1.1,0-2.73,1.06-2.85,1.02.04.82.69.77.94,1.22Z"/></svg>