<?xml version="1.0" encoding="UTF-8"?><svg xmlns="http://www.w3.org/2000/svg" viewBox="0 0 200 200"><defs><style>.cls-1{fill:#fff;}</style></defs><path class="cls-1" d="m198.33,94.88c-.25-.32-.58-1.46-.58-1.46,0,0,0-.48-.33-.98-.33-.49-.08-1.39-.33-1.39s-.5-.57-.65-.81c-.17-.24-.33-.97-.58-1.21-.24-.25-.33-.74-.24-.98.08-.24.24-.9.24-1.22s.32-1.55.32-1.87.48-1.38.32-1.71c-.17-.34-.07-.9-.17-1.38-.08-.49-.08-.99-.17-1.23-.08-.25-.39-.57.09-1.14.48-.56.9.41.81-1.38-.08-1.79-.17-2.69-.41-2.44-.25.24-1.05,2.2-1.05,2.2-.81.73-1.23.33-1.23.33,0,0-.16-.25-.48-.66-.33-.41-1.16-1.13-1.31-1.39-.16-.23-.5-2.44-1.15-2.35-.65.08-2.13-1.3-2.13-1.3,0,0,.24-.81-.15-.81s-1.63-.81-1.63-.81c0,0-.97-.24-1.15-.49-.16-.24-.09-1.38-.49-1.3-.4.09-.81-.24-.9-.72-.08-.49,0-1.96-.17-2.21-.16-.24.25-.07-.16-1.04-.4-.99-.74-1.23-.74-1.23,0,0,0,.5-.48.5s-1.14-.08-1.22-.33c-.09-.24,0-.49-.24-.66-.24-.15.24-.57-.49-.57-.73,0-.81-.71-1.06-.32-.65.97-.63,2.1-.97,1.78-.73-.64-.58-1.7-.82-2.19-.24-.48-.57-.65-.57-1.38s.4-1.14-.17-1.87c-.57-.73-.09-.89-.82-1.38-.73-.5-.32-1.07-.89-1.3-.57-.25-.25-.33-.57-.66-.33-.31-.89-.64-.89-.64,0,0-.33-.49,0-.98.32-.48,1.31-.9.49-1.06-.82-.16-.41.17-1.38-.4-.98-.57-2.04-.48-2.04-.48,0,0,1.63-.42.82-.82-.82-.41-2.44-.32-2.52-.65-.09-.32-.49-.32-.64-.81-.17-.48-.34-1.06-.83-1.12-.48-.09-.25-.59-.9-.59s-.25-.16-1.14-.07c-.9.09-1.31-.08-1.79-.57-.49-.49-.42-.68-.74-1.06-1.06-1.3-1.06-1.79-1.06-2.28s.32-.98-.16-1.06c-.5-.08-.74-.49-.98-1.06-.25-.57-.33-1.63-.25-2.11.08-.49-.08-1.3-.08-1.3,0,0,1.21.48-.34-1.3-1.55-1.79-1.22-1.47-1.22-1.47,0,0-.41-.56-.65-.89-.25-.32.07-.56-.5-.72-.57-.16-.41-.09-.58-.98-.15-.9.09-1.79-.08-2.19-.17-.41-.1-1.31-.17-1.8-.09-.48-.09-.41-.18-1.87-.07-1.47.42-.89-.07-1.47-.49-.56-.73-.81-1.06-.81s-.16-.16-.82-.56c-.65-.41-.49-.74-.98-1.23-.49-.48,0-.57-.49-.48-.97.41-1.62.65-1.62.65-.81.58-.6.35-1.22.16-1.05-.31-.64-.57-1.14-1.05-.5-.48-.25-.81-.5-1.06-.24-.23-.16-.82-.33-1.14-.15-.32.09-.49-.24-1.3-.33-.81-.17-1.62-.34-2.02-.16-.42.17-.73-.16-1.22-.33-.49,0-1.14-.33-1.47-.33-.32.09-.57-.57-1.06-.65-.48-.58-.65-.74-1.05-.16-.41-.08-.73-.24-1.22-.17-.49.4-.33-.5-1.23-.9-.9-.65-.32-.9-.9-.24-.56.09-.89-.08-1.38-.16-.48-.24-.41-.49-1.13-.24-.73.25-.73-.24-.73s.15-.33-.49,0c-.66.32-1.06.33-1.22.74-.16.4-.16.25-.24,1.06-.07.81,0,1.3-.16,1.87-.15.57.33.16-.39,1.14-.74.97-.82,1.14-.82,1.62,0,.48-.32.41-.64,1.06-.33.66-.48-.07-.33.66.17.74.25.74.5,1.06.24.32.69.52.4.82-.9.89-.49.08-.9.89-.4,1.39.33,1.22,0,1.96-.19.42-.13.47-.13.5-.16.17-.43.46-.2.23-.81.89-.72.65-.48,1.47.25.81.33.56.33,1.21s-.08,1.19-.15,1.56c-.24,1.14-.44,1.34-.4,1.71.09.82.45.74.57,1.06.41,1.06.7,1.46.41,1.78-.57.66-.08-.32-.57.66-.24.48-.37.64-.45.73,0-.28-.03-.53-.03.04-.04.05-.04.08,0,.2,0,1.38.16.33,0,1.38-.17,1.06-.57,1.3-.57,1.3,0,0,.25.08.09.82l-.16.73c-.16.73-.08-.08-.16.73-.08.82.57.42-.08.82-.65.41-1.54.98-1.54,1.47s-.16.58-.25.81c-.31.9-1.21,1.64-1.21,1.64-.81.48-.66-.49-1.23.09-.56.56-.73-.08-1.14.32-.4.41-.24-.4-1.14-.08l-.89.33s-.09-.9-.41-.89c-.33,0-.66-.41-1.06-.41s-.33-.57-.74-.65c-.41-.09-1.13-.24-1.13-.24,0,0,.16-.73-.09-.9-.25-.16-.57-.8-.57-.8,0,0-.41-.33-.81-.17-.41.17-.82-.65-1.07-.32-.24.32-.48-.58-1.14-.33-.65.25-.57-.16-.9-.4-.32-.24-.72-.33-1.06-.57-.81-.57-.32,0-.81-.57-1.06-.89-1.19-1.06-1.46-1.29-.82-.65-.41-1.47-1.07-1.47s-.08.09-.65,0c-.57-.08-.66.33-1.06.42-.4.08-.73-.24-1.15-.24s-.32-.65-.81-.73c-.49-.07-.42-.32-.66-.64-.24-.33-.16-.49-.49-.9-.33-.41-.69-.76-.9-.9-.91-.57-1.63-.81-1.96-1.05l-.89-1.14.48-.89c.81-.82,1.05-1.23,1.3-1.38.24-.17.48-.65.48-.65,0,0,.57-.74.56-1.15,0-.4.68-.76.32-.97-.65-.41.9-.57.9-.57-.98-.32-1.73-.06-1.71-.32.08-.89.05-1.53.48-1.47,1.63.24,1.46.41,1.95.32.49-.08.49.49.81-.16.33-.65.57-.41.25-.97-.33-.57-.41-.65-.09-1.23.32-.56.08.73.65-.9.56-1.63.97-1.3.97-1.3-.66-1.06-1.09-1.48-1.31-1.63-.81-.56-.57-1.94-.98-1.05-.4.89-.48.73-.64,1.46-.17.73.65.57-.17.73-.81.16-.73-.31-1.05-.49-.9-.48-.33-.08-.9-.48-.34-1.63,0-1.95-.34-1.63-.32.33-.48.65-.89.98-.41.32-.89.32-1.13.57-.24.25-.68.54-.99.33-.9-.64-.96-.85-1.3-.89-.82-.09-.65-.41-1.23-.17-.56.25-.33-.56-.89-.32-.57.25-.1,1.03-.32.89-1.06-.64-1.74-1.01-2.04-1.13-1.15-.49-1.06-.96-1.46-.72-.41.23-.41-.34-1.23-.17-.81.17-.64-.16-.97-.24-.33-.08-.41-.65-.82-.64-.4,0,.15-1.23-.41-.98-.56.24-.89.42-1.22.33-.33-.08-.57-.72-.81-.9-.26-.16,0-.73-.57-.64-.58.08-.58-.65-1.23-.08-.65.57-.89-.25-1.3.57-.41.81-.57.58-.41.81.16.24.42.82,1.06.89.66.08,1.06-.16,1.38.16.33.32.91.17.91.57s.41.96.16,1.38c-.24.42-.64.9-.64.9l-.81.16s-.57-.41-.9-.24c-.33.16-.48-.08-.73.48-.24.57-.89.98-.89.98-.89-.24-1.47-1.39-1.72-1.38,0,0-1.46.41-1.87.89-.4.49-.32,1.23-.57,1.23s-1.3.08-1.62.33c0,0-.5.08-.57.49-.09.41-.57,0-.98.49-.4.48-.41-.17-.4.48,0,.65.08,1.32.32,1.32,0,0-.8,1.29-.8,1.94s-.81.01-1.46.66c-.66.66-1.1.95-1.13,1.47-.16,2.12-.16,1.31-.16,2.12s0,.98.48,1.47c.5.48.66,1.62.66,1.62-1.3.49-1.79.49-2.12,0,0,0-1.31-1.46-1.79-.97-.49.48-1.95.48-1.95.48-1.46,2.29-2.11,2.12-2.11,2.12v-1.3c.16-1.46-.49-2.43-.49-2.43-1.47-1.46-1.31-2.28-2.44-2.28s.15.98-1.15,0c-1.3-.97-2.12-1.46-2.12-1.46,0,0-1.14.48-1.3.98,0,0-1.4-.37-1.78.65-.49,1.31-1.79,2.13-1.79,2.13-1.46,0-1.79-.49-2.28-.16-1.46.99-1.63,1.63-1.63,1.63l-.15,2.28s-1.79.17-2.12.98c0,0-.48.98-.47,1.63,0,0,.64.97.82,1.79l-1.96.32-2.13-1.13-.48,2.11s1.47.49,1.63,1.3l-1.78,2.28-.48,1.64-.98-3.09-1.55-1.55s-.57-.48-.73-.24c-.17.24-.56.32-1.13,1.38-.57,1.06-2.03,2.2-2.18,2.46-.17.24-.09.48,0,.8.08.33.48.41.48.99,0,.57-.38,1.45-.23,1.78.49,1.14.08,1.15-.33,1.48-.4.32-1.54,1.05-1.54,1.05,0,0,.65.09.08.89-.57.82-1.46,1.89-1.7,2.21-.25.32-.48.4-.81.81-.33.41-.97.89-.97.89-1.14.65-2.36,1.4-2.36,1.4,0,0-.41,0-1.63.17-1.22.16-1.3.08-1.79.41-.48.33-.41.16-.89.58-.49.4-1.22.82-1.22.82,0,0-.66-.49-.9-.16-.24.33-.32-.73-.81-.64-.49.08-1.06.16-1.47.48-.41.33-.41.16-.89.57-.49.41-1.7.82-1.7.82,0,0-.73.32-1.06.57,0,0-1.06.57-1.38.74-.33.15-.74-.09-.74-.09,0,0-2.44-.29-2.84-.15-.98.33-1.47.17-1.71.49-.24.33-.76.13-1.06.41-1.13,1.05-1.05.33-1.45,1.22-.42.91-.25.33-.82.91-.56.56-2.11,1.22-2.11,1.22,0,0-.65.33-.81.58-.17.23-.24.57-.65.81-.41.25-1.63-.08-1.63-.08,0,0-.56.41-.32.81.24.42-1.87,1.56-1.79,1.8.09.25-.17.82-.4,1.23-.41.72-1.31-.32-1.31-.32,0,0-.57-.41-.24-.74.33-.32.33-.64.4-.97.09-.32-.08-.97-.08-.97,0,0-.25-.25-.73.32-.48.57-.39,1.47-.65,2.2q-.24.73-.49,1.31c-.24.56-.07.56-.07,1.06s.33,1.55.25,1.79q-.08.25-.25,1.06c-.15.81.09.81-.32,1.3-.41.49-.32.49-.65,1.22-.33.73-.4,1.14-.56,1.63-.16.49-.32.41-.07,1.39.24.97.48,1.54.66,1.87.15.32.32-.89.81.48.49,1.38,1.31,2.6,1.39,2.93.08.31.73.89.73,1.13s-.4.66-.4.99.57-.09.48.89c-.07.97-.64,1.3-.64,1.3,0,0-.42-1.71-.98-1.63-.57.08-.16-.89-.99-1.06-.81-.14-1.22-.96-1.14-.4.09.57,1.38,1.14,1.47,1.71.08.57.23.98.57,1.38.32.4.16-.57.32.4.17.98-.16,1.06-.4.98-.24-.08-.09-.89-1.07-.97-.97-.08-1.22-.41-1.38-.65-.16-.25-.08-.97-.49-1.38-.27-.25-.42-.48-.57-.71-.08-.14-.16-.27-.25-.42-.25-.4-.66-.89-.66-.89,0,0,.08,2.27.66,2.27.57-.01.74.4.74.88s.57,1.07.73,1.3c.17.25.41.09.82.49.4.41.65.25,1.13.49.49.24.25,1.55.57,1.78.34.26.42,0,.65.73.25.74.74.57.82,1.06.09.49,0,1.87,0,2.36s.42,1.95.42,1.95c.64.73,1.22,1.55,1.3,1.87.08.33-.32-.57.25.98.57,1.55,1.39,1.54,1.47,2.03.09.5.73,2.28.58,2.52-.16.25-.24,1.38-.24,1.38,0,0,.41.41.08.82-.33.41.08.65,0,1.38-.08.74.33.57.41,1.3.09.73-.11.89.41,1.47.82.88,1.31,1.69,1.64,1.94.32.25.9.89.97,1.14.33,1.05.58,1.38.34,2.2-.24.81-.09-.4-.24.81-.16,1.23.41,2.43.41,2.43,0,0-.32,1.07-.48,1.48-.15.41-.16-.41-.15.41,0,.81.09,1.05.09,1.62s.24.4-.07,1.31c-.33.89.32.48-.33.89-.65.4-1.14.32-1.54.65-.42.33-.82.08-.9.73-.08.65.17.97.08,1.54-.08.58-.33-.08-.08.58.24.64.65.48,1.06.57.4.08.89,0,1.3.32.4.33,1.06.16,1.06.49s.74.41.74.81.41.9.58,1.3c.15.41,1.38,1.06,1.38,1.06,0,0,1.31.08,1.38.4.1.32,1.31.24,1.31.24l2.12-.26s1.22-.15,1.95.25c.73.4,2.86-.42,2.86-.42l1.29-.57.98-.9.89-.98,1.71-.5,2.19-1.05.73-.91.57-.65s1.87-.5,2.35-.33c.5.16,1.39.07,1.48.24.07.16,1.7-.74,1.7-.74,0,0,.9.08,1.14,0,.25-.08,1.22-.08,1.22-.08,0,0,.48-.24.73,0,.24.24.65-.17.89.24.25.4,1.95.32,1.95.32l1.72-.16,1.13-.09s.65-.33.89-.16c.24.16.97-.08.97-.08,0,0,.89-.25,1.15-.33.24-.08,1.3-1.14,1.3-1.14,0,0,.89-.65.96-.9.09-.25-.24,0,.82-1.31,1.05-1.3,1.95-1.63,2.28-1.71.32-.08,1.63-.57,1.87-.65.24-.09,1.62-.9,1.62-.9l1.3-1.14s.82-.73.9-.49c.09.25,1.39.09,1.39.09l3.9-.02s1.15,0,1.54-.08c.41-.08,2.2-.66,2.2-.66l1.3-.16.97-.74s.81-.32,1.22-.73c.39-.41.57-.65.97-.74.4-.08.81-.24,1.22-.25h1.55s.9-.15,1.3.08c.4.24,1.63-.49,1.87-.33.24.16.33-.23,1.63,0,1.3.24,2.19-.49,2.52-.17.33.32,1.38-.09,1.38-.09,0,0,1.38-.49,1.79-.24.4.24,1.55.73,1.55.73,0,0,.82.81,1.3,1.05.49.24,0,1.14.33,1.22.33.09,1.15.32,1.15.32h1.37s1.23-.32,1.47-.57c.24-.23.89.24.89.24.42.82,1.14,1.06,1.14,1.06,1.07-.33.9-.49,1.38-.33.49.16.72.22.98.57.65.89.97.98,1.22,1.05.25.09.9-.08.97.57.09.65.65-.24.09.65-.57.9-1.12.66-.9.98.9,1.3,1.55,1.3,1.64,1.71.09.41,1.55.64,1.55.64.33.74.3.91.41,1.14.41.89.73,1.06.74,1.3,0,.24.9.41.73.81-.16.42-.09.48,0,.81.09.32.23.75.32.98.42.98.28,1.17.42,1.46.49,1.07,1.22,1.8,1.22,1.8,0,0,1.13.16,1.22.4.08.25.73,0,.73,0,0,0,.66-.82.41-.82s-.09-.65.08-.97c.16-.33.73-1.07.73-1.07l1.29-1.22,1.06-.98s1.06-.57.9-.65c-.17-.09.65-.82.65-.82,0,0,.57-.24.81-.41.25-.16.74-.73.74-.73.81-.65.89-1.14.97-1.38.08-.24.49-.82.49-.82l.48-.65s-.17-.57.08-1.06c.24-.49,1.22,1.3.98,1.3s-.15.9-.4,1.06c-.24.17-.08.48-.24.9-.16.4.25.82,0,1.06-.24.24-.65.81-.73,1.06-.07.24-.32,1.05-.39,1.3-.09.24.16.57-.16,1.15-.33.57-.33.49-.24.89.07.41.65.33.24,1.3-.4.99,0,.65-.4.99-.4.32-.57.39-1.14.48-.57.08-.08-.73-.57.08-.49.81-.57,1.22-.57,1.22l.73.74.66-1.15.96-.09s.42-.16.74-.08c.32.08.81-.17.89-.4.08-.25.4-.9.48-1.38.08-.49.32-1.3.32-1.3,1.14.15,2.52.8,2.28.97-.24.16.33.41.24.73-.08.32.17.97-.07,1.55-.25.56-.33.89-.41,1.14-.09.24.08.24-.16.73-.24.48-.21.5.16.65.98.41,2.11-.09,2.11-.09,0,0,1.79-.41,1.72.08-.08.48.57.4.49.73-.07.33-.32,1.3-.32,1.3,0,0,.9.71,1.07.9.66.73.92.79.9,1.05-.08,1.06.17,1.54.17,1.54,0,0,0,.41-.09.74-.08.33.49.49.25.81-.24.34.04.18.16.66.33,1.21.45,1.27.5,1.79.07.89.22.91.4,1.13.74.9,1.15,1.22,1.31,1.46.57.82.73,1.06.98,1.46.24.41,1.23.16,1.31.41,0,0,1.37-.17,1.37.08,0,0,1.96.89,1.88,1.13,0,0,1.05.41,1.3.41s.41-.25.81-.08c.41.16.4-.17.98.08.57.24,1.78.39,1.78.39,0,0,1.39-.25,1.31.16-.08.41.82.56.82.56l.81.25s.64.17.73.48c.08.33.98.65.98.65,0,0,.72-.24.81-.08l.09.17,1.46-.82,1.22-.82.57-.73.9-.57.4.33.66-.41c0-.65.48-1.22.48-1.22l.81-.57s1.06.4.73.64c-.31.25-.24.98-.48,1.15l.73.48,1.3-.89s1.06.81.49,1.13c-.57.33-.98.16-1.05.4-.09.24.33.24.65.41.31.17,1.22.32,1.22.32h1.14l.73.65s.5.49.5.73.81.73.81.73c0,0,.24.49.4.82,0,0,.57-.65.57-.9s.73-1.14.73-1.14l.81-.17.73-.16c.97-1.31,1.87-1.79,2.03-2.12.16-.33,1.06-1.07,1.06-1.07,0,0,0-.24.81-.81.81-.58,1.46-1.3,1.47-.98,0,.32.9-.09.9.16,0,0,1.78-1.07,1.95-.66.15.4,1.31.56,1.31.56,0,0,.81-.24,1.05-.17.24.08,1.22-.17,1.22-.17,0,0,.82-.24,1.05-.16.24.09.9-.16.9-.16.4-.9.65-1.54.65-1.54.39-.99.89-1.81.89-1.81,0,0,.27-.53.08-.81-.49-.72-.25-2.03-.25-2.03,0,0,.4-.58.4-.99s.16-.41.24-.82c.09-.4,0-.64,0-.98,0-.32.08-1.21.08-1.21.65-.82.65-.9.81-1.39.16-.49.57-1.29.57-1.29l1.29-1.56s.33-.81.41-1.07c.08-.24.08-.72.16-.97.08-.24.24-.73.32-1.14.09-.41,0-.89.25-1.06.25-.16.49-.98.49-.98,0,0,.41-.82.48-1.06.07-.24.97-1.38.97-1.38,0,0,.16-.08.24-.66.08-.57.08-.97.08-.97,0,0,.15-.49.65-.9.48-.41.81-.98,1.06-1.15.24-.16.24,0,.89-.65.64-.64.81-.81,1.22-1.23.4-.4.08-.16.72-.89.65-.74,1.3-1.48,1.3-1.48,0,0,.24-1.22,0-1.22s-.09-.65-.09-.65c0,0,.65-.65.65-1.06s.17-.98.17-.98c0,0,.48-.65.48-.98s.42-1.14.42-1.38c-.02-.25.31-1.54.31-1.54,0,0,.48-1.06.42-1.39-.09-.32.31-.89.23-1.38-.08-.49.08-.89,0-1.31-.08-.4-.08-.65,0-1.06.08-.4.48-.89.64-1.3.15-.4.64-.98.64-1.22s.17-.73.32-1.06c.16-.33.4-.49.4-1.15s-.08-1.06-.08-1.06c0,0,.32-1.14.08-1.46Z"/></svg>