<?xml version="1.0" encoding="UTF-8"?><svg xmlns="http://www.w3.org/2000/svg" viewBox="0 0 200 200"><defs><style>.cls-1{fill:#fff;}</style></defs><path class="cls-1" d="m166.1,145.46c-.49,2.13-.43,1.06-.82,1.85v3.4c-1.31,1.31-3.66,3.92-3.66,5.75,0,2.62,3.52,4.44,4.31,5.62-.53.53-1.05.4-1.7.53-1.18.39-2.09-.14-3.27.39-1.7.78-2.1,2.49-3.79,2.49-1.96,0-3.14-2.62-5.49-2.62-2.1,0-2.62,1.18-4.32,1.7.26,1.05.26,1.83,0,2.87-1.96,0-2.22-1.96-3.4-1.96-.67,0-1.44.78-1.44,1.43l2.48,2.88c-.13.79-.53,1.19-.53,1.57,0,.4,3.53,3.67,4.58,3.67,0,.4.26.92.52,1.18-.65.39-1.95-.13-2.22.79h-.27c-1.43-.27-2.74-1.3-3.39-1.97v1.05c.39.79.78,1.18.78,2.23,0,.78-1.31,2.35,0,3h-1.83c-2.1,0-3.93-2.09-3.93-4.31,0-.92,1.31-1.3,1.7-1.97h-2.23c-.52,0-.78-1.17-.78-1.43-.53-1.83-1.57-3.01-2.75-4.18-1.57-1.57-3.65-2.75-3.65-5.5v-3.4c0-1.83-2.89-4.58-4.72-5.49-1.82-.93-3.92-1.06-3.92-2.88h-1.83c-2.88,0-6.15-4.45-6.15-7.45h-3.93c-1.69,0-.92-2.75-1.69-3.54-1.44.92-4.32.92-4.32,2.36,0,.25.39.78.65.78-.27.79-.52,1.57-.52,2.35,0,1.98,1.18,2.75,2.75,3.29,1.96.64,3.01,2.87,3.4,4.04.52,1.83,1.44,3.92,2.48,4.45,1.97.92,3.27.26,5.24.26,0,.4,0,.78-.26,1.04-.53,1.57,2.61,2.23,3.4,2.62,2.62,1.31,5.75,2.35,5.37,5.1-1.31-.26-2.1-1.96-4.19-1.96-1.58,0-2.88.78-2.88,2.09,0,1.7,2.36,2.1,2.36,3.79,0,.66-1.7.66-1.7.66-1.18,1.17-.92,3.92-2.75,3.92-.91,0-1.44-.39-1.44-.92,1.57,0,2.22-1.95,2.22-3.53,0-1.96-1.04-2.48-1.31-3.66-.38,0-3.52-3.12-3.66-3.9-.53,0-2.48-.55-2.48-1.32-4.06-.92-4.97-2.1-7.2-4.33-.92-.91-2.87-1.44-3.14-2.35-2.35-3.01-3.14-8.37-8.11-8.37-2.36,0-2.49,1.7-3.66,2.23-2.49,1.17-4.19,3.53-7.06,3.53s-4.71-1.45-7.33-1.45c-1.96,0-4.05,1.31-4.05,3.28l.79,2.87c-.79,2.62-3.67,3.53-6.41,4.18-2.36.53-6.15,5.89-6.15,8.77,0,1.04.66,1.43,1.31,1.69-1.7,2.61-2.49,4.19-5.23,5.5-1.57.78-1.83,4.06-4.45,3.27v.12c-1.17-.39-3.39.27-4.05.27-3.14,0-4.84,2.61-7.72,2.61-1.96,0-2.09-4.83-5.1-4.83-2.23,0-3.66.91-5.63.91-.78,0-1.04-.65-1.04-1.05v-5.23c-1.05,0-2.1-.78-2.1-1.83,0-1.7,1.44-2.09,1.44-3,0-3.28,1.17-6.67,1.17-10.07,0-1.97-1.44-3.8-1.44-4.98,0-.78,4.45-3.53,5.23-3.53.53,0,1.18.79,1.96.52h5.88c.53.52,1.58.66,2.23.79h6.28c1.57-.4,2.36.52,3.67.52.91,0,2.87-.65,3.27-.65,0-2.62,1.7-3.4,1.7-5.89,0-.53-.14-2.82-.14-3.61l-.26.2c.26-.52.53-1.43.53-1.96,0-1.18-.79-.92-.79-1.97-2.62,0-3.4-2.35-3.4-4.43-.78-.14-.91-.79-1.57-.92-2.09-.65-7.85-1.7-7.85-3.67-.13,0-.13-.39-.13-.51,0-1.18,3.66-1.96,4.97-2.35.39.78,2.49,1.3,3.53,1.3s2.49-.52,3.01-.65v-.92c-.91-.27-.52-2.22-.65-2.61v-1.05h1.31c1.04,1.05,2.35,1.7,3.92,1.7,1.06,0,1.97-.92,2.23-1.96,3.92,0,4.97-2.88,5.75-6.02.79,0,1.18-.13,1.83-.27.78-.26,6.02-2.35,6.54-2.87,1.05-1.04.66-2.62.66-4.19,0-.52,1.18-1.31,1.3-1.44,1.84-1.84,3.66-3.93,6.67-3.93,1.7,0,.92.4,1.84,0,.39.4.78-.64,1.04-.91.92-.92,2.1-.13,3.27-.13.79,0,2.88-1.18,2.88-2.22,0-.66-.92-3.15-.92-3.28-.52-3.53-2.62-4.57-2.62-7.72,0-5.49,5.1-5.88,8.37-8.24v1.57c-.65,1.31-.78,2.1-.78,3.4s1.44,1.44,2.48,1.44v1.04c0,.64-1.17.92-1.56,1.32-1.31,1.3-2.88,2.48-2.88,4.83,0,1.32.65,2.23,1.43,2.36,0,.79.13,1.05,0,1.44,1.44,0,1.97.53,3.15.53.26.65.52,1.57.91,1.57,3.54,0,6.02-3,9.03-2.62-.13.65-.79,1.05-.79,1.44,0,.26,2.23,1.83,2.23,1.83,1.44,0,1.56-.91,2.23-1.17,2.22-1.05,3.93-.66,5.88-1.58,1.18-.52,3.27-2.48,4.84-2.48,1.7,0,3.54.13,4.44.53-.26.52-.52,1.17-.52,1.43,3.41,0,6.91-.66,9.39-.66s4.08-.17,6.7-.17,4.06,4.89,4.06,7.76c0,1.71-1.84,2.62-1.84,4.32,0,2.75,2.49,4.45,2.49,6.94,0,1.56-2.49,2.09-3,2.87-1.57,2.36-2.1,4.46-2.1,7.59,0,3.66,2.62,2.88,5.63,2.88,4.18,0,6.14-1.7,9.29-1.7,3.53,0,2.74,6.8,6.01,6.8v5.36c0,.4.39.65.65.92l.65.79c.66,0,2.22-.66,3.14-.79.13.65,0,1.31.13,1.97-1.31.26-2.71.89-2.71,2.2Z"/><path class="cls-1" d="m100.79,73c-1.7-.78-1.96-1.95-2.88-3.27-2.75,3.93-6.94,8.89-12.43,8.89-.79,0-5.89-3.14-5.89-3.66,0-1.05,1.71-1.71,2.23-1.97v-1.95q-1.83,0-3.4.64c0-.91,1.44-2.48,2.09-3.39-1.97-2.35-2.23-5.63-2.23-9.29,0-1.96,2.1-1.83,2.88-3.01,1.57-2.22,3.01-3.79,5.88-4.58,2.36-.65,2.88-3.79,7.59-3.27-1.44-.39-1.96-.65-3.14-.92,5.76-1.44,7.98-6.01,11.91-9.16,1.57-1.17,1.31-5.23,2.35-5.23,0,0,1.31-2.87,1.31-3.01,1.57-2.61,3.4-4.44,6.15-5.49,2.75-1.04,6.42-5.49,7.07-8.25-3.27.66-4.58,2.36-7.72,2.36.65-.92,2.09-1.58,2.62-1.83-.66,0-1.97-.4-1.97-.4.26-1.3.92-2.08,1.97-2.08.4,0,.65.39,1.04.39.4-.79.79-1.31,1.18-1.7.66.78.79,1.44.4,2.35,2.09,0,2.62,1.31,4.32,1.31.66,0,2.1-3.15,2.36-3.28-.92-.26-.92-.38-2.09-.26.65-1.04,1.7-2.1,3.01-2.1.91,0,1.7.26,2.61-.26-.66-.66-.52-.52-1.04-1.05,1.3-1.31,3.66-1.18,5.62-1.57v1.57c1.7-.39,2.09-3.4,4.84-3.53v2.22c1.7-3.13,3.92-2.35,6.28-3.66-1.05-.39-1.96-.65-1.96-1.57,0-.65,2.35-1.18,2.74-1.96.79.91,1.58,1.96,2.75,1.96,1.97,0,6.94-3.27,6.94-1.57,0,1.83-2.23,2.36-2.75,4.19,2.61.26,3.39-2.74,5.62-3.92.52.92.52,1.57.65,2.35,1.84-1.83,2.88-2.35,4.97-3.66.13,1.7-.13,2.87,1.31,3.01.39-1.04.91-1.97,1.96-1.97.65,0,3.53,1.57,4.58,2.1-1.19,3.14-2.22,2.09-5.24,3.14,1.31,1.05,2.23,1.17,2.23,1.96,1.18.13,3.92.52,4.31.52-1.83,1.31-6.54,3.67-6.54,6.67,0,2.48,4.59,2.35,4.59,5.23,0,2.23-2.36,3.27-2.36,5.49,0,2.49,2.62,3.93,2.62,6.54,0,1.58-1.31,2.36-1.31,3.93,0,2.88,3.93,3.66,3.93,6.54,0,.79-1.18,1.44-1.57,1.7,1.18,2.09,4.18,2.61,4.18,5.49,0,4.31-9.02,9.15-11.77,12.81-1.31,2.62-7.33,3.01-9.81,2.62-2.62.78-5.62,1.96-7.85,1.96-1.7,0-2.87-.26-2.87-1.71-2.75,0-5.63-1.82-5.63-4.57,0-1.31,1.44-2.23,1.83-2.88-1.31-.53-2.49-3.53-2.49-4.97,0-.92.27-1.7,0-2.62,5.49,0,8.38-7.19,11.77-9.15,1.83-1.05,4.97-1.7,4.97-3.93,0-3.27-4.3-3.93-7.58-3.93-4.31,0-7.85,1.58-7.85,5.23,0,1.57.4,2.21,0,3.01,0,3-6.02,5.62-8.76,7.19-2.22,1.31-4.58,1.84-5.89,4.19-1.04,1.83.26,4.31-1.7,5.23v2.61c.66.52,1.05,1.44,1.05,2.35,2.35.4,5.89,2.75,5.89,5.24,0,1.96-3.93,5.24-5.23,5.24-2.62,0-3.66,3.79-3.66,6.54,0,1.56,1.18,2.08,1.96,2.21-.39,3.53-3.52,3.8-3.92,6.28h-3.53c-2.23,0-3.01,4.19-6.28,4.19-1.05,0-2.87-5.5-2.87-6.14,0-.4.26-.92.26-1.31-2.23-2.22-1.96-4.06-2.88-6.94-.65-1.96-2.62-2.48-2.62-4.83,0-.93.79-2.1.92-2.36v.65Z"/><path class="cls-1" d="m24.92,100.08c.79,0,3.01-.65,3.79-1.44-.52-.78-.79-1.04-.79-1.69,0-.92,2.62-2.49,3.93-2.49h2.22c3.01,0,4.45,3.14,4.45,5.36,0,1.05-2.36.92-2.36,1.97v4.45c0,1.05.91,2.62-.13,3.67-.79.78-2.09.65-3.4.65-2.09,0-3.66,2.23-4.71,2.88-.65.39-1.7.52-2.49.52-1.57,0-3.27-1.43-3.27-3.01,0-3.27,3.27-3.53,3.79-6.67-1.31-.65-2.49-1.44-2.49-2.75,0-1.7,1.04-1.44,1.44-1.44Z"/><path class="cls-1" d="m61.68,106.89c.91-.65.65-.52,1.7-.52,1.57,0,2.75,1.17,2.75,2.48,0,2.36-3.14,3.53-4.19,5.23,1.31.39,1.83.52,2.62.52v.91c-1.18,1.18-2.09,1.97-3.66,1.97h-5.23c-1.31,0-4.84,1.18-6.8,1.18-.92,0-1.44-.79-2.36-.79-1.31,0-2.09,1.18-2.09,2.23h-1.83c-.92,0-1.31.52-1.83,1.04h-.92v-.79c.26-.52,4.19-4.71,4.58-4.84,1.83-.52,4.45.13,4.45-1.7,0-.26-.26-.66-.26-.92-.52.79-1.44,1.3-2.36,1.3-1.7,0-2.22-1.56-3.66-1.56-.79,0-.66.65-1.31.65-.26,0-.65-.39-.65-.65,0-1.97,3.66-2.1,3.66-4.05,0-1.71-1.05-2.36-1.05-3.8,2.36,0,5.24-1.17,5.89-2.48v-1.97c-1.31.14-3.14-.13-3.14-1.44,0-1.04.65-1.3.92-1.83-.4,0-.79-.12-1.18-.12-1.31,0-1.96.65-3.01.65-1.18,0-2.09,0-2.09-1.04s1.3-1.71,1.3-2.75c0-1.18-.39-1.44,0-2.49-1.04,0-1.83-.39-2.22-.65-.66,1.05-.26,1.44,0,1.96h-1.05v-2.09c0-.4.13-.66.53-.93v-1.17c-.79-.12-1.97-.52-1.97-1.04,0-.65.92-1.57.92-1.69v-1.05c-1.96-.39-3.01-.78-3.01-2.49h2.09c0,.79.65,1.18.92,1.18s.52-.52.52-.78c-.26-.13-.65-.53-.65-.78,0-1.05.92-1.57,1.83-1.57,0-1.06.52-1.58.52-2.24s1.3-1.69,2.09-1.69h3.79c.53,0,1.31.92,1.31,1.17,0,1.83-2.88,1.57-3.27,3.4,0,.4.13.65.39,1.04h7.72c.52,3.67-3.53,5.23-3.53,7.99-.52.13-.92.53-1.05,1.05,1.31.39,1.96-.13,3.01.13,2.49.79,2.09,3.93,3.66,5.5,2.09,2.09,5.5,3.01,5.5,6.14,0,1.05,1.44,1.7,1.44,2.75,0,.4-.26.79-.65.92v.91c.92-.26,1.05-.66,1.56-.91l-.65.52Z"/><path class="cls-1" d="m105.37,176.34v.92c.39.65,1.44.52,1.83.65,2.09.65,3.79,2.88,6.01,3.4,0,.4.66.53,1.05.53s.78-.53.78-.91c0-1.05-.65-1.17-.65-2.09,0-.52.65-1.45.65-1.45l.53-1.51c-1.98-.39-2.76.86-4.46.86-1.83,0-3.01-1.7-5.75-.4Z"/><path class="cls-1" d="m92.02,155.94c.92,0,1.44-1.18,2.1-1.31,0,.65.13,1.31.52,1.45-.39,1.56-.78,4.44-1.17,5.22-1.31-.26-1.7-4.05-2.36-5.1.26,0,.65-.26.91-.26Z"/><path class="cls-1" d="m91.5,166.67c0-1.05-1.18-1.71-1.31-2.75,1.44-.4,1.57-1.7,2.75-1.7.91,0,1.3.79,1.69.79,1.15,2.08.82,3.26.82,5.36,0,1.83-2.38,3.67-3.43,3.67-1.31,0-1.31-1.7-1.31-2.74.13-1.05.78-1.7.78-2.61Z"/><path class="cls-1" d="m156.11,188.51c-1.7.91-2.35.27-3.26.27-1.05,0-3.54-.27-4.97-1.05,2.88-.52,6.01.13,8.23.79Z"/></svg>