<?xml version="1.0" encoding="UTF-8"?><svg xmlns="http://www.w3.org/2000/svg" viewBox="0 0 200 200"><defs><style>.cls-1{fill:#fff;}</style></defs><path class="cls-1" d="m189.67,45.24c-.33.58-1.33,1.33-1.86,1.5-.99.33-1.78,1.03-3.19,1.03-1.53,0-2.61-.37-3.73-.75-.58-.17-.91-.75-1.82-.75.12-.08.25-.21.37-.21,0-.54.12-.79.21-1.25-.66-.16-1.37.25-1.78-.16.62,0,1.7-.21,2.16-.37-.12-.08-.17-.21-.17-.33-.49,0-2.03-.46-2.11-.91.37-.12.58-.04.83.08v-.33c.33,0,.41-.46.74-.46h.33c.04.25.21.37.25.63-.04.29.33.83.62.83s.54-.21.75-.25c-.08-.29-.12-.37,0-.54.16.17.29.37.54.37l1-.25c.33.08.41.21.58.29-.04-.13,0-.29,0-.41.62,0,.95.12,1.32.12.54,0,1.04-.49,1.41-.12,0-.33.08-.46.17-.62.29.08.29.12.46,0,0,.49.33.54.75.54.37,0,.62-.21.99-.21-.12.09-.25.26-.25.38,0,1.2,1.54.91,1.54,2.07l-.08.08Z"/><path class="cls-1" d="m118.21,111.97c-.29.5-1.08.5-1.57.5-.95,0-1.61-.29-2.4-.29v-.25c.2,0,.37-.16.41-.37-.62-.29-1.28-.25-1.41-.87-.33,0-.29-.29-.46-.37-.33-.17-.54-.04-.87-.04-.58,0-.87-.62-1.45-.62h-1.2c-.25-.17-.21-.33-.08-.46-.17-.17-.37-.13-.58-.13-.79,0-1.9.58-2.32,1h-.37c.66-1.12,1.53-1.83,3.4-1.83s2.69,1.04,4.06,1.04c.29,0,.62.42.71.5.58.58,1.61,1.04,2.57,1.04,0,.08-.04.21,0,.29l.62.04c.45.13.66.7.95.83Z"/><path class="cls-1" d="m108.19,109.86c.04.21.08.42,0,.62-.04,0-.58.08-.58,0,0-.29.25-.37.37-.37v-.29h.08l.13.04Z"/><path class="cls-1" d="m115.44,114.25c.25.08.33.21.37.37-.5.08-.87.25-1.37.25-.33,0-.66-.29-.66-.62,0-.17.25-.25.41-.25.5,0,1.08.25,1.33.33l-.09-.08Z"/><path class="cls-1" d="m124.22,113.22c.41.33.83.5,1.12.91h-1.53c-.29.16-.45.33-.75.33-.25,0-.21-.21-.41-.21-.54,0-.5.75-.95.75-.37,0-.29-.41-.5-.54-.37-.25-1.36-.12-1.87-.12-.29,0-.29.12-.5,0,0,.12-.04.21-.04.33-.25-.04-.5-.41-.5-.66.08,0,.17-.13.21-.17.96,0,1.37.21,1.86-.04-.25-.25-.29-.54-.29-.87-.25,0-.54-.21-.54-.46,0-.12.21-.29.33-.29.37,0,.62.29.99.29.54,0,.79-.17,1.24-.17,1.32,0,1.57.71,2.32,1.08l-.21-.17Z"/><path class="cls-1" d="m113.57,105.97c.33.04.46.29.46.58,0,.08-.12.21-.21.21-.41,0-.41-.45-.41-.79,0-.04.12,0,.17,0Z"/><path class="cls-1" d="m112.79,103.94c.08-.17.37-.33.58-.33.29,0,.42.21.5.33-.42.04-.83,0-1.08,0Z"/><path class="cls-1" d="m114.86,104.44c-.12.04-.25-.21-.21-.33l.21.33Z"/><path class="cls-1" d="m84.95,35.96c-.33,0-.54.12-.54.41,0,.33.46.33.62.33.04.33.25.46.41.58-.37.79-1.32.75-2.36.75-1.61,0-2.2-1.24-3.4-1.24-.74,0-.45.45-1.08.74-1.08.54-2.11.21-2.98.83h-3.73c-.7,0-.25-.67-.74-1.04-.46-.33-1.7-.2-2.28-.2-.91,0-1.66-.96-1.95-1.45.99-.75,2.28-.95,4.02-.95.62,0,.87-.04,1.37-.08-.29-.17-.62-.42-1.04-.42h-2.19c-.91,0-3.19.42-3.19-.75,0-.91,1.2-.58,1.66-.87-.66-.17-.91-.04-1.45-.04-.46,0-1.24-.62-1.24-.83,0-2.03,3.77-3.52,5.26-3.52.58,0,.54,1.2.7,1.45.34-.21.62-.75,1.29-.75,1.16,0,1.57.5,1.86,1.24.46-.08.79-.17,1.24-.29-.04-.37-.13-.5-.21-.75h.91c.58.17,1.16.71,1.37,1.16.25.5-.04,1.53.71,1.53.33,0,.33-.17.54-.33-.33-.54-.95-2.49-.95-2.86,0-.33.42-.54.75-.54.74,0,.5.33,1.16,0-.04-.13-.04-.29-.04-.41,0-.42.58-.71,1.24-.71.75,0,1.45.29,1.45.91s-.91,1-.91,1.37c0,1.49,1.12,2.44,1.12,3.52,0,1.32,3.48,2.24,4.27,2.86-.75.5-.92.33-1.66.33Z"/><path class="cls-1" d="m59.47,32.77c-.21,0-.5-.62-.62-.83-.33-.45-1.99-.33-1.99-.83,0-1.41,2.07-2.57,2.07-4.06,0-.33-.58-.99-.62-1.45,1.04-.41,1.49,0,2.49,0,.5,0,.91-.5,1.66-.29.91.25,1.32.75,2.24.83.37.37.87-.13,1.41-.13.87,0,2.9.83,2.9,1.79,0,.45-2.2.79-2.61.91-1.28.41-3.11,2.15-3.11,3.11,0,.33-2.86,1.37-3.19,1.37-.29,0-.41-.42-.62-.42Z"/><path class="cls-1" d="m71.49,25.6c-.5,0-1.16-.37-1.16-.62,0-.62.62-.49,1.16-.49-.25-.33-.62-.54-.71-.96-.25.04-.46.29-.46.54-.7.08-1.24.29-1.74.29-.54,0-1.16-.29-1.45-.29-.33,0-.62-.29-.62-.62,0-.42.17-.33,0-.62.41-.08.62-.41,1.04-.41.83,0,1.24.37,1.86.41-.7-.08-1.33-.33-1.86-.54v-.62c.33-.04.71,0,.71,0,.16,0,1.45.25,1.86.29-.79-.17-1.49-.09-2.07-.46.16-.24.5-.46.83-.46.54,0,.66.17,1.04.13-.5.04-1.24-.04-1.24-.54.74-.12.99,0,1.36,0,.17,0,.66.13.7.63h.95c1.25,0,2.11,1.57,3.94,1.57.54,0,.75-.17.91-.54-.46,0-.66-.04-.83-.12.04-.08.29-.17.41-.17v-.54c-.29-.04-1.04-.24-1.04-.62,0-.67,1.08-1,1.49-1.33.25.17.49.29.79.29-.04.33,0,.45,0,.54,0,.62.79,1.53,1.58,1.53.37,0,.58-.49,1.12-.49.5,0,.95.54.95,1.04,0,.58-.99,1.82-1.37,1.94-.25.08-2.69-.21-2.69-.08,0,.08-2.65.67-2.78.7-.83.33-1.66.62-2.69.62Z"/><path class="cls-1" d="m65.15,23.11c-.33,0-.71-.2-.71-.49,0-.66,1.53-.99,1.95-.95-.08.58-.71,1.45-1.24,1.45Z"/><path class="cls-1" d="m70.24,20.13c-.21,0-.54-.17-.54-.54h1.45v.54h-.91Z"/><path class="cls-1" d="m68.59,18.43c0,.29-.25.58-.54.66.04.42.33.5.33.83l-1.78,1.33c-.71,0-.67-.95-1.04-1.16-.08.71-.71,1.36-1.41,1.29-.08.45-.41.91-.87.91-.33,0-.62-.46-.7-.62-.5.25-.75,0-1.16,0-.25,0-.38.29-.71.33-.08-.29-.42-.5-.42-.62,0-.08.75-.67.92-.75.66-.33,1.28-.41,1.99-.83.79-.46.99-1.53,2.15-1.53.33,0,.37.04.74.09,0,0,2.49-.66,2.49.08Z"/><path class="cls-1" d="m73.22,16.2c-.5,0-.62-.33-1.03-.33-.33,0-.5.29-.83.33,0-.54,2.49-1.45,3.02-1.45.87,0,1.57.5,1.74,1.04-.33.17-.62.42-1.12.42h-1.78Z"/><path class="cls-1" d="m75.01,17.32c.08.87-1.29,1.24-2.19,1.24-.62,0-1.32-.74-1.32-1.12,0-.96,2.52-1.03,3.39-1.03.46,0,.62.25.75.41-.46.37-1.16.5-1.78.5h1.16Z"/><path class="cls-1" d="m70.91,17.23c-.17.25-.29.49-.58.49-.37,0-.83-.41-.83-.62,0-1.04,1.16,0,1.41.12Z"/><path class="cls-1" d="m91.04,29.04c0,.58-.12.21-.12.62.16.04.7.13.95.21-.2,2.26-.33,1.65-1.66,2.15-.37.13-.46.62-.83.62-.58,0-.66-.45-.91-.7-1.16-1.16-2.44-1-3.64-2.2v-.7c.54,0,1.16.5,1.87.5h.62v-1.12c-.54-.08-1.33,0-1.33-.54,0-.12.25-.2.29-.33.66-.66,1.57-.5,2.49-.5h1.66c.12,0,.41.21.41.41,0,.83-1.03,1.16-1.33,1.54.33-.04,1.53-.41,1.53.04Z"/><path class="cls-1" d="m82.67,21.04c-.17-.2-.42-.41-.42-.83h.5c1.2,0,1.82,2.12,3.11,1.75-.33-.21-.66-.5-.83-.7v-.5c.91,0,1.24.91,2.28.91v-.91c-.7,0-1.28,0-1.45-.58.29-.12.45-.04.75-.04.66,0,1.07.41,1.86.41.33,0,.5-.33.83-.33.74,0,.83.41.83,1.04,0,.95-.5,1.45-.33,2.61-.62.21-1.54.21-1.66.21-.25,0-1.33.17-1.33-.21,0-.17.13-.33.29-.42-.04-.13-.04-.29,0-.42,0-.37.79-.37,1.04-.62-.12-.09-.33-.13-.5-.13-.75,0-2.2.41-3.02.41-.29,0-.5-.25-.5-.5h-.62l-.13-.41c-.41.12-.7-.16-1.03-.41v-.75l.33.41Z"/><path class="cls-1" d="m91.87,38.65c-.54,0-3.61-1.12-3.61-1.24,0-.33.75-.16.92-.2.49-.17.33-1.33,1.16-1.33.62,0,2.32,1.53,2.57,2.12-.41.25-.58.66-1.03.66Z"/><path class="cls-1" d="m98.83,27.17c0,.09-.74.63-.74.63-.54.74-1.12,1.66-2.36,1.66-.91,0-.91-.54-1.16.29h.54c-.12.74-.45.87-.95,1.37h-.83c0-.54,0-1.04.04-1.24-.66-.67-.37-1.16-.66-1.99v-.71h.95c-.08-.04,0-.29,0-.41,0-.04.25-.62,1.12-.62,1.41,0,2.57.5,4.06.5-.04.21,0,.33,0,.54Z"/><path class="cls-1" d="m82.3,18.48c-.04.29-.29.49-.58.49-.45,0-1.45-1.12-1.45-1.65,1.08,0,1.16.87,2.03,1.16Z"/><path class="cls-1" d="m82.67,22.91c.08.2.29.33.29.62,0,.5-.38.54-.62.54-.42,0-.5-.09-.83-.04.16-.7.58-.91,1.16-1.12Z"/><path class="cls-1" d="m85.86,16.2c-.74,0-1.2-.25-1.95-.16-.21-.38-.74-.17-1.37-.17-.58,0-.75.04-1.12-.33.37-.37.74-.33,1.24-.5-.09-.13-.09-.37,0-.5-.91,0-1.12.25-1.45,0,.12-.08.25-.25.29-.41-.58,0-.71-.12-.71-.62.5-.08.83-.33,1.33-.33.87,0,1.08.74,1.57.74.33,0,.5-.33.83-.33.83,0,.79.95,1.24.95.25,0,.37-.33.62-.33.58,0,1.03.74,1.24.95-.08.12-.25.29-.33.41.33.33,1.16.66,1.16,1.12,0,.42-.41.54-.75.54-.99,0-.91-1.04-1.86-1.04Z"/><path class="cls-1" d="m84.57,17.32c-.74,0,.21-.62.38-.62.46,0,.58.21.95.33-.21.29-.7.29-1.33.29Z"/><path class="cls-1" d="m111.54,23.32c-.16.13-.33.29-.42.58.29.08.54.04.54.04-.12,1.45-1.99,1.45-3.44,1.45-.54,0-.75-.33-.83-.62-.58.08-.66.29-1.04.54h-3.32c-.87.21-2.16.09-2.07-.62h-.5c-.16.21-.79.71-1.16.71-.91,0-2.98-1.04-2.98-1.87,0-.29.33-.58.5-.66-.75-.74-.95-1.41-1.66-2.11-.25.25-.5.41-.83.41-.45,0-2.98-1.08-2.98-1.45,0-.62.75-.62,1.24-.62,1.87,0,2.2,1.45,3.61,1.45.41,0,.66-.09.83-.33h.75c-.33.96,1.57.71,1.95,1.24h-1.65c.25,1.12,1.28.5,1.86.96-.08.08-.29.08-.29.21,0,.58.5.33.66.21.99.25,1.82.5,2.86.5,2.28,0,3.02-1.04,5.18-1.04,1.65,0,2.73.08,3.31,1.16-.08.04-.29.08-.42.08l.29-.21Z"/><path class="cls-1" d="m92.2,23.45c.46,0,.29-.95,1.24-.95.75,0,1.74.83,1.74,1.37,0,.7-.25,1.32-.83,1.32-.29,0-2.69-1.12-2.69-1.12,0-.41.46-.62.54-.62Z"/><path class="cls-1" d="m94.77,17.32c.45,0,.12.08.54,0v.54c0,.21-.25.41-.62.41-.21,0-2.61-.45-2.61-.45.41-.41,1.9-.5,2.69-.5Z"/><path class="cls-1" d="m90.54,16.82c0-.21.29-.37.42-.41-.5-.5-1.37-.75-1.37-1.58,0-.41.54-.58.95-.62.12.33,1,.62,1.45.62,0,1,1.45.08,1.45.95,0,.29-.12.58,0,1.04-1.45.33-2.9.5-2.9,0Z"/><path class="cls-1" d="m89.59,11.43v.83h-.7c-.25-.25-.75-.33-.75-.83.54-.04,1.16,0,1.45,0Z"/><path class="cls-1" d="m100.9,11.23h.5v-.54l-.21-.29h.42c.58,0,.54.21.54.71,0,.29.5.33.5.62s-.29.37-.29.62c0,.37.62,0,.71,0,.41,0,1.49.5,2.03.54,0,.29.09.46-.04.62-.17.25-.62.17-.96.21-.83.08-1.4,1.33-1.95,1.33s-.54-.37-.66-.83c-.21.21-.29.41-.5.62.25.42.41.5.54.83h-.75v.54c-.37.04-1.12-.5-1.49-.75,0,.75-.37.95-.99.95-.66,0-1.57-.17-1.66-.75.29-.04.41-.16.54-.29-.7,0-1.86-.42-1.86-1.04,0-.79,2.57-.7,3.15-.83-.62-.16-1.08-.33-1.7-.33s-.75.33-1.24.33c-.42,0-.45-.29-.58-.54-.41.17-.54.33-.87.33-.29,0-.33-.16-.33-.41.42-.16.71-.21.96-.54-1.41,0-2.28-.12-2.4-1.32h.62c.21.16.87.41,1.24.41.16,0,.37-.33.37-.33-.54-.16-1.82-.46-1.82-.91s.58-.41.95-.41c.58,0,.79.29,1.12.29.25,0,.33-.29.45-.41-.41-.25-.91,0-1.16,0-.17,0-.54-.62-.54-.66.5-.29.83-.54,1.57-.37h.7c-.5-.25-1.2-.3-1.24-.87,1.04.08,1.87.16,2.61.45.83.34.66,1.54,1.33,1.79.62.25,1.04-.17,1.66.08.62.25.37.79.74,1.16Z"/><path class="cls-1" d="m103.26,47.48c.21-.17.41-.29.41-.54v-.62c0-.71.21-2.36,1.37-2.49.21.62.41.75.62,1.16.13-.17.25-.25.37-.33.87,1.08,2.2.66,2.94,1.66.21.29.08.58.29.74.66.5,1.41.29,1.78.79-.45.29-.83.45-1.37.45h-1.12s-1.32-.95-1.57-1.03c0,.91-1.37,1.78-1.95,1.53-.13.21-.13.33-.33.33-.5,0-.37-.41-.29-.83-.66-.16-1.45-.04-1.78,0,.04-.7.54-.62.62-.83Z"/><path class="cls-1" d="m117.14,40.23c0,.54-1.03.91-1.53.91-.62,0-1.04-.41-1.04-.91,0-1.66,2.57-1.37,2.57,0Z"/><path class="cls-1" d="m107.82,49.42c.83-.04.66-.04,1.16.17-.37.5-1.41,1.32-2.07,1.41v-.54c.33-.42.87-.79.91-1.04Z"/><path class="cls-1" d="m112.29,29.46c-.83,0-1.53-.21-1.24-.91-.37-.21-.83-.41-.83-.87,0-.42.37-.62.7-.62.91,0,1.2.33,2.07.33,1.12,0,2.07.91,2.82,1.28-.13.37-.37.66-.75.66-.54,0-.79-.29-1.24-.29s-.83.42-1.53.42Z"/><path class="cls-1" d="m112.09,50.91c-.25.33-.34.92-.75.92-.08,0-.62-.63-.62-.63,0-.74.95-.78,1.37-.29Z"/><path class="cls-1" d="m118.09,40.02c-.29,0-.54-.08-.54-.33,0-.12.46-.42.54-.42.37,0,.71.5.83.66-.54.13-.41.08-.83.08Z"/><path class="cls-1" d="m112.17,37.82c-.5,0,.46-.96.95-.96-.12.5-.46.96-.95.96Z"/><path class="cls-1" d="m131.14,44.24c0,.46-.08,1.16-.54,1.16-2.07,0-2.15-2.82-4.14-2.82-.25,0-.79.46-.83.46.37.21.45.16.83.08v.5c-.25.08-.46.13-.62,0v.62h.53c.09.54.58,1.45.92,1.58.78.29,1.07-.21,1.16.5h.7q-.04.66,0,.83c0,.29.75.5.75.95,0,.41-.46,1.2-.62,1.66-.74-.09-3.4-1.08-3.85-1.66h-.62c.7.87,3.02,1.74,3.02,2.9,0,.29-.25.5-.41.5-.21,0-.29-.46-.41-.5-1.2-.58-1.99-.33-3.03-.95-1-.58-3.48-.54-2.78-1.86-1.36-.58-2.03-1.37-3.23-2.07-.21.29-.46.62-.83.62-.41,0-.33-.29-.7-.29-.5,0-.75.62-1.24.62-.45,0-1.78-.58-1.78-1.16,0-.41,1.08-1.12,1.66-1.12h1.78c.37,0,1.37-.25,1.87-.58-.21-.13-.75-.54-.75-.87,0-.7.75-.33,1.04-.63.37-.37,1.24-1.28,1.24-1.86,0-1.08-2.65-3.11-3.52-3.11-.54,0-.79.49-1.33.49-.16,0-.33-.41-.33-.49,0-.42.75-.5.99-.54-.37-.37-2.61-2.28-3.06-2.28-.54,0-1.2,1.58-1.95,1.58-.54,0-.37-.67-.33-.95-1.29-.12-4.43,0-6.3,0-.33,0-1-.5-1.24-.83h-1.99c-.21-.58-.83-.66-.91-1.24.54-.21,1.16.04,1.86.13v-.54c-.37-.25-2.28-.42-2.28-.42,0,0-.62-.74-.62-1.12,0-1.16.21-1.4.83-1.86.33-.25.12-1,.29-1.16.83-.83,1.9-1.53,3.31-1.53,0,0,1.33.41,1.37.41-.42.87-1.78.95-1.78,2.15,0,.25.12.41.33.41-.08.29,0,.75,0,.75,0,.33-.08.7.41.7.25,0,.83-.5.83-.83,0-.41-.41-.7-.41-1.12,0-1.58,2.77-2.07,4.43-2.07,1.08,0,1.66,1.45,1.66,2.36,0,.17-.21.83,0,.83.25,0,.41-.41.83-.41.45,0,.58.41.95.41.71,0,.91-1.04,1.66-1.04.79,0,2.57.25,3.11.62.91.66,1.2,2.07,2.57,2.07h1.04c.45,0,1.49.12,1.36.83,1.12.37,1.74,1.04,2.9,1.16v.7h.71c.58,0,.91.42,1.16,1-.58.12-1.12.08-1.45.58.7.08.87.08,1.24.08.21,0,.5.13.62.37-.66.33-.99.33-1.36.95.37.21.62.33,1.16.33.08.95,1.2,1.37,2.07,1.45.08.75.29,1.45.91,1.45.91,0,1.12-.58,1.45.21.21.21.54.21.74.21.79,0,1.12.29,1.12.95,0,.54-.7.7-1.24.7.04.46,0,.33,0,.54,0,.12-.12.49-.91.49Z"/><path class="cls-1" d="m114.16,48.68c-.42.33-.54.33-.96,0,.42-.54.46-.25.96,0Z"/><path class="cls-1" d="m106.28,43.62c.54-.25.54.29.83.66-.54-.04-.87-.37-.83-.66Z"/><path class="cls-1" d="m126.79,3.31c-.29.29-.42.37-.75.46l3.32-.95c.29.16.45.25.74.33.46.12.46.46.7.7.5.5,2.69.29,2.69,1.04,0,.54-.75.41-1.04.62-1.66,1.24-3.69.5-5.88,1.57.42.41,2.07.08,3.11.13-.95.96-3.27,1.53-4.77,2.03-1.66.54-2.61,2.19-3.85,3.11-.58.41-1.49-.08-2.16.12-.91.29-1.94.37-2.61.91h1.16c.08.92-.41.83-1.2.75.5.25.95.41,1.2,1-.87.42-1.16,1.41-1.86,1.9h-2.07c.08.29.29.37.29.62,0,1.32-1.74.54-1.74,1.95h1.03c.13,0,.62-.04.62.33,0,.7-2.36,1.45-3.31,1.45s-.54-.62-1.37-.62h-3.11c-.37,0-.62.41-1.24.41-1.37,0-2.49-.37-3.94-.83-.12.21-.29.41-.5.41-.29,0-.41-.21-.41-.33,0-1.66,2.16-1.04,3.02-1.66-.5-.37-1.37-.5-1.37-1.24,0-.58.62-.41,1.04-.41,1.33,0,1.78.7,2.57,1.16h.75c-.58-.58-1.86-1.08-1.86-2.07h-.62q-.25.13-.41.29h-.62v-.49c.34-.71.62-1.16,1.24-1.37,1.04-.33,2.28.04,2.28-1.12,0-1.32-2.82-1.32-2.82-2.07,0-.41.62-.33,1.03-.33-.45,0-.54-.16-.62-.49.21-.09.42,0,.62,0,.46,0,1.37-.17,2.2.08,1.04.34,1.41,1.53,2.57,1.41-.21-.21-1.53-1.04-1.53-1.28,0-.17.21-.29.29-.41h2.07c.78-.33,1.49-.53,1.99-1.16h-.62c-.83.66-1.78.95-3.11.95-.79,0-1.03-.33-1.45-.33-.33,0-.5.41-.83.41-.83,0-1.9-.29-1.66-.83h-.54c-.29.21-.53.42-.91.42-.83,0-1.99-.5-2.28-.87.29-.21.58-.41,1.12-.45-.79,0-1.62-.04-1.95,0,.46-1.08,1.49-.95,2.57-1.29-.37-.08-.5-.08-.83-.08-.83,0-.87.75-1.66.75-.21,0-.66-.29-.75-.33.42-.42.66-.54,1.16-.7h-1.24c-.25.08-.5.21-.62.29h-.91c.25-1.03,2.94-1.53,4.14-1.53h.91c.16,0,.33-.17.33-.34,1.33,0,.79-.91,1.66-.91.79,0,2.4.79,2.78.91.37-.99.87-1.86,2.07-1.86.71,0,.29.37.83-.08.21-.41.54-.54.95-.54h4.77c.08-.17.29-.29.5-.29.74,0,.95.5,1.57.5.58,0,.75-.7,1.33-.7.62,0,.87.29,1.24.29h1.16c.99,0,4.56-.12,5.39.7Z"/><path class="cls-1" d="m143.86,38.36c.58-.29.58-.33,1.16-.09.25-1.24.87-1.66,1.24-2.81-1.29-.41-4.31-.62-4.47-1.78.42-.16.37,0,.75,0,.87,0,1.49.62,2.49.62.41,0,.37-.37.41-.62-1.29-.42-1.66-2.36-3.02-2.36-.37,0-.5.7-1.04.7-.74,0-1.12-.08-1.12-.7,0-.91.91-.83.91-1.78,0-.62-.66-.66-1.04-.71v-.62c-1.16-3.56-4.06-7.17-8.7-7.17h-1.24c-.54,0-.79.54-1.33.54-.37,0-.74-.33-1.24-.33-.45,0-.62.08-.83.16.12.13.29.29.41.33-.25.25-.2.12-.54.12-.87,0-2.19-.37-2.69-.99.37-.25.66-.29.83-.67-.66-.25-1.16-.7-1.66-.7-.91,0-.66.29-1.45,0,.08-.58.91-.83,1.24-.83h1.04c.42,0,.54-.04.75-.33h2.36c.42-.29.42-.46.54-.91h-1.66c-.08.21-.21.41-.41.41h-1.45c-.17,0-4.14-1.11-4.14-1.78,0-1.28,1.45-.83,2.36-1.12.75-.25,1.2-.7,1.99-.95,1.12-.37,2.61.25,3.52-.29.66-.41,1.12-1.16,1.12-2.2-.75-.08-3.1-.04-3.1-.83,0-.37.62-.58.82-.62,1.41-.45,3.27-1.45,4.1-2.28.33.25.66.33,1.07.33,1.45,0,.33-1.91,1.66-2.07,1.66-.21,2.28-.62,3.85-.62,1.16-.29,1.99-.95,3.11-.95.75,0,.96,1.24,1.74,1.24,0-.29-.21-.54-.21-.83l.41-.41c.46.79,1.16.71,1.99,1.04h.62c-.13-.33-.33-.58-.33-.91,0-.5.62-.53,1.03-.53,1.7,0,2.69.95,3.73,1.45h1.86c-.66-.33-2.36-.87-2.36-1.66,0-.62,1.29-.41,1.66-.5-.29-.29-.62-.33-.83-.62,1.12-.54,2.16-.83,3.52-.83.99,0,1.66-.04,2.57.29h.83v-.49c.62-.09,1.04,0,1.66,0,1.99,0,3.6-1.16,5.72-1.16h6.01c2.44,0,4.27,1.58,6.22,2.4,1.12.45,2.57.17,3.6.41-.21,1.45-3.02,1.24-4.14,1.66l-9.1.5c.71.54,7.65-.29,8.39,0-.08.33-1.89,2.07-1.56,2.07,1.04,0,3.51-2.36,4.87-2.36.74,0,1.04.62,1.04,1.24,0,.37-2.68,3.19-2.8,3.6,1.08-.29,3.18-3.03,3.84-3.52h2.78s.79.16.95.12c.75-.29.87-.5,1.53-.83h1.99c.12-.49.41-.54.83-.54.54,0,2.48.91,2.48,1.45,0,.49-.79.87-1.04.95-1.37.46-2.24,1.66-4.1,1.66.5.25.54.25.87,0,0,1.16-1.12,1.16-1.86,1.32.29.58,0,.12,0,.54,0,.66-1.08.83-1.86,1.04.04.46,0,.46,0,.62,0,.87-.87,1.16-1.66,1.74-.5.37-.45,1.37-.71,1.78.46.21.79,0,1.24,0,.66,0,1.24.45,1.66.78-.21.13-.5.25-.74.25.16.66,1.78.46,1.78,1.45s-2.16.62-2.9.62c-.46,0-.83.33-.83.62,0,.71.74.71,1.33.71,0,.91.62,1.16.62,1.78,0,.33-.21.66,0,.91-.66,0-1.33,0-1.33.54,0,.7,1.16.66,1.66.83-.25.66-1.08,1.03-1.87,1.12,0,.29.21.54.41.62-.29,1.24-1.95.71-2.28,1.58-.45-.29-.91-.5-1.24-.95h-.62c.41,1.12,2.28.75,2.28,1.86,0,.5-.12,1.16-.62,1.16-.75,0-2.03-1.08-2.28-1.87-.33.04-.46,0-.54,0v.62c1.49,1.49,4.14,2.19,4.14,4.56,0,.45-.66.5-1.12.5-1.95,0-1.53-2.07-3.23-2.07-.21,0-.41.13-.62,0,0,.58.41.71.41,1.04,0,.37-.7.5-.91.54,0,1.24,3.69,1.08,4.56,1.37-.62.5-1.03.54-1.78.79-1.37.46-1.78,1.62-2.98,1.99-1.49.49-2.7.37-4.27,1.03h-1.95c-.41.25-.83.37-.83.7l-1.04.75c-.78.62-.83,1.45-1.45,2.07-.83.83-2.24.62-3.11,1.24h-.62v-.83c-.62.26-.45.67-.83,1.04-.87.87-3.1.49-3.1,1.86,0,.13.08.29.08.42-.13.17-.29.29-.29.5,0,.29.5.5.5.96,0,1.41-1.95.95-1.95,2.15,0,.75-.08,1.82,0,2.28-.95.45-.45,2.61-1.57,2.61-.29,0-.41-.17-.5-.42-.5.04-.58.29-.83.29-1.04,0-.95-1.87-1.99-1.87-.58,0-1.24.5-1.74.54-.29-.95-.71-.66-1.37-1.16-.25-.17-.17-.75-.29-.83-.83-.66-2.4-2.53-2.4-3.73,0-.54.33-.5.62-.79-.62-.79-.83.25-1.54-.13-.17-.16-.29-.95-.41-1.36-.25-.79-1.37-1.24-1.37-2.37,0-.41.29-.62.42-1.03-.29-.17-.58-.21-.83,0v-.95c.58-.79.83-1.61,1.66-2.28v-.08Z"/><path class="cls-1" d="m141.91,36.79c-.37-.04-.83-.96-.83-1.45,0-.62.54-.83.91-.83,1.08,0,1.41,1.12,2.49,1.45-.08.7-.95.83-1.66.83h-.91Z"/><path class="cls-1" d="m183.96,24.07c-.29,0-.54-.41-.54-.62,0-.25.29-.42.41-.54h.75v.54h.7c-.21.12-.91.62-1.33.62Z"/><path class="cls-1" d="m136.4,75.06c-.21,0-.42-.29-.42-.41,0-.17.74-.75.74-.79v-.25c-.12,0-.29-.09-.33-.21,1.16-.58,1.61-2.44,2.23-3.39.33-.54.58-1.24,1.24-1.24.16,0,.29.25.29.41,0,.91-.87,1.37-1.12,2.11v.37c.33-.08.33-.33.62-.33.25,0,.49.04.66.21l-.21.2v.37h.75v.21l.5-.17c.46.13,1,.13,1.2,0,0,.38-.04.75-.04,1.37.08-.08.29-.12.46-.12-.04.37-.42.46-.42.62,0,.21.29.37.29.66.41,0,.29-.08.54-.25,0,.5.29.46.29.87,0,.49-.25.99-.66.99-.29,0-.37-.33-.37-.5-.12,0-.2-.08-.33-.08-.33,0-.08-.79-.41-1.12-.33.5-.71,1.12-1.2,1.12-.08,0-.25.08-.25,0,0-.41.33-.41.46-.67-.41,0-.95.25-1.16-.16-.29.12-.54.21-.83.21-.54,0-.78-.29-1.24-.29-.62,0-.79.25-1.28.25Z"/><path class="cls-1" d="m109.1,66.41c.71,0,1.41.12,1.41.7,0,.04-.17,0-.21,0-.37,0-.95-.17-1.2-.42.04-.08.04-.21,0-.29Z"/><path class="cls-1" d="m139.42,65.58c-.33,0,.15-.41-.33-.62v-.5c-.95.54-2.94,1.25-3.94,1.25-.12,0-.37-.08-.41-.17.83-.46,3.13-.77,3.38-1.56.04-.21-.31-.27-.36-.47-1,.12-3.11-.33-3.11-1.74v-.13c-.91,0-1.45-.58-1.99-.99.21-.12.62-.25.62-.74,0-.41-.37-.75-.29-1.16-.38-.12-1.72-.98-1.37-1.74.43-.94-1.33-1.16-1.45-2.28-.13,0-.54-.37-.71-.54-.29.21-.95.58-.95,1.16,0,.62-1.33,2.15-2.36,2.15-.74,0-.87-.91-1.36-.91-.71,0-1-2.03-1.12-2.9-.16-1.16-2.4-.33-2.4-1.86-1.16-.17-1.41-1.58-2.57-1.58-.54,0-.54.41-1.16.41-1.2,0-1.94-.7-3.11-.7-.62,0-1.24.29-1.24,1.03,0,.41,1.46,1.02.12,1.86-.53.33.76,1.25.83,1.86.14,1.23-1.03,1.54-1.57,1.74.95,1.62,2.39,2.15,2.39,4.88,0,.75-2.49,2.61-3.31,2.77,1.44.73.87,2.99,1.45,3.69-.16.25-.7.54-.75.99-.49,0-.86.81-1.24.5-1.03-.82-2.48-2.11-2.48-3.31,0-1.33.25-2.37-.91-3.11h-2.69c-1.53-1.12-3.27-1.78-5.1-2.49-.33-.12-1.28-.83-1.86-.83-.62,0-.91.62-1.54.62,0-.99-.66-3.32-1.57-3.32-.42,0-.62.33-1.03.42.17-.5,0-.67,0-1.87,0-1.66.5-2.65,1.45-3.6.33-.33,1.04-1.95,1.37-2.07.7-.25,1.95.17,1.95-.83,0-.62-1.59-.67-2.17-1,.37.12-.88-.72,2.49.31.87.27.34-.88.84-.88h.91c1,0,1.53-1.03,2.2-1.53v-.62c-1.41-.33-2.82-.12-3.44-1.37h.74c.54.33,1.08.95,1.86.95.66,0,1.86-.87,1.86-1.36,0-.17-.62-.91-.29-.91.91,0,1.25.83,1.82.83.37,0,.62-.33,1.37-.33-.21-.25,0-.98.5-.21.27.41,2.4-1.41,2.4-1.95,0-.37-.95-.78-.95-1.04,0-.29-.56-.95.75-1.57.16-.37,0-.33,0-1.03-1.33,0-1-1.04-2.69-1.04-.38-.04-.66-.29-1.04-.29-.5,0-1.04.33-1.04.83,0,.54.62.74.62,1.12,0,.41-.95.41-1.16.83-.33.71-.22,1.26-.82,2.03-.93,1.19-2.16-.74-2.16-1.2,0-.54.71-.41.71-1.03,0-.29-1.2-1.45-1.54-1.45-1.2,0-.37,1.78-1.66,1.78,0-.71-.08-1.2-.95-1.61.13-.21.21-.33.41-.5-.66-.42-1.57,0-2.07-.62.29-.17,1.04-.45,1.04-.99,0-.79-1.22-.76-1.24-1.37-.04-1.29-.95-2.11-2.57-2.16-.79-.02-.45.5-.41.92-.5.12-1.16,0-1.16.62,0,.41.33.62.33,1.04s-.54.37-.54.95c0,1.37,2.82.54,2.82,1.95,0,.25-.33,1.24-.33,1.24.29-.17.54-.25.87-.41.54,1.7-2.2.87-2.2,2.9-1.36.37-.29-.99-.62-1.45-.12-.21-1.24-.5-1.86-.5-.75,0-1.04.46-1.04,1.33-.7-.09-1.16,0-3.52,0-2.24,0-4.85-.79-5.38-2.48-.75.21-3.23.24-3.23,1.16,0,.29.19.45.52.45.66,0,1.76-.32,2.25-.65.17,1.37-1.94.25-1.94,1.66,0,.29.45,1.24.25,1.24-.83,0-.99-1.03-1.7-1.36l-.62-.29h-2.65c-.83,0-1.37.33-2.28.37-1.64.08-1.64-.52-1.64-.65,0-.37,1.27-.22,1.52-.47-1.15-1.6-.95-1.34-3.31-1.16-2.52.2-3.77-1.86-6.3-1.86-.79,0-1.12.54-1.78.54-.46,0-.91-.79-1-1.12-.79.17-.79,1.08-1.61,1.08s-1.91-1.86-2.15-1.86c-.83,0-.54,1.2-1.41,1.2-.33,0-.62-.25-.75-.58-1.28.29-1.74.37-2.9.82-.46.08-1.54.88-1.9.54-1.08-1.01-.9.28-1.29.29-2.7.09-.83,1.08-1.2,1.08-1.03,0-2.9-.2-4.6-1.24-.07-.04-.58-.42-.58-.54-.29.17-.08.08-.5,0v.04c-1.03-.33-1.41-.83-2.61-.83-.74,0-1.2.29-1.95.29-1.28,0-3.85-.2-4.68-1.03h-3.19c-.58-.29-.75-.5-1.24-.83h-2.07c-.38-.13-.5-.25-.96-.41-.21.33-.62.62-1.04.54.13-.21.17-.29.37-.54-.54-.16-.74-.62-1.28-.62-.7,0-1.12.91-1.78,1.16-.58.21-.95-.08-1.53.08-2.2.7-4.06,2.28-5.3,3.94h-2.28c-.04.13-.62,1.16-.62,1.16,0,.29,1.7.62,2.2.91.42.25.91,1.49,1.24,1.65,1.2.58,2.07.67,2.49,1.99-.5.12-.58,0-1.16,0-.87,0-1.54.37-1.54-.95h-.74c-.99.66-2.69,1.2-3.73,1.82.21.41.58.66,1.24.66-.04.13-.12.29-.12.41,0,.37.5.54.54,1.16h2.2c.62-.12.91.29,1.74.29s1.12-.71,1.78-.71c.25,0,.25-.04.62,0v.62c-.29-.17-.21-.21-.62.04.04.12.7.7.7.99,0,.54-2.82,1.66-3.19,1.66-.87,0-3.11,1.03-3.11,2.28,0,.66,1.32.87,1.66,1.78-.21,0-.41.13-.62.13.29.37,2.24,1.9,2.78,1.9.17,0,.5-.7.83-.7.37,0,.33.5.33.62v.83c0,.33.17,1.04.42,1.04.17,0,.37-.33.62-.33h.5c0-.17-.04-.38.04-.62.7.54.99.79,1.99,1.16.04-.29.17-.41.29-.75.41.12.62.33,1.12.33.62,0,.91-.29,1.53-.54h.62c-.99.62-.99,1.86-1.95,2.49-.99.66-2.61,1.37-3.31,2.28-.5.62-1.29.21-1.99.62-.46.25-.83,1.08-1.33,1.37-.7.41-1.49.08-1.99.87,1.74.5,2.57-1.24,4.06-1.49,1.2-.17,2.69-.62,3.31-1.24.67-.67,2.07-1.08,2.69-1.86.33-.41.5-.83,1.04-1.04.95-.37,1.86-.7,1.86-1.66v-.62c0-1.37,2.74-3.65,3.73-3.65h.5c0,.13-.04.29-.04.42-1.2.37-1.82,1.08-1.82,1.99,0,.21-.17.21.05.5-.08.04-.33.08-.33.33,0,.16.25.29.41.29.95,0,3.61-1.5,4.14-2.32-.21-.17-.29-.29-.41-.58.37-.21,1.2-.42,1.7-.63.7,1.45,2.53,1.62,3.9,2.07h2.28c1.24.71,2.65.66,3.73,1.45.5.37,1.08,1.57,1.95,1.57.33,0,.49-.42.62-.74.33.33.62.61,1.24.61.16-.29.54.09.74.29-.12.21-.41.37-.41.87,0,.25.46.62.62.62.54,0,.33-.5,1.12-.54v.54c0,.33-.62.37-.62.7,0,.25.17.62.75.62.74,0,1.24,0,1.24.62v.62c0,.46,1.03,1.24,1.74,1.24.21,0,.21-.04.42-.04,0,.21.25.33.25.58,0,.54-.17,1.66.41,1.82.33.08.66.08.91.33.37.37-.08.92.42,1.25,0,0,1.08.66,1.12.79.29.95.38,2.07,1.78,2.07.21.83,1.65.29,1.98,1.36.13.41,1.16.5,1.58.91.08.08.29.17.46.25.17.42.54.54.54.95,0,.37-.37.87-.58,1.12-.21-.37-.58-.7-1.2-.7-.16,0-.62.04-.62.29,0,.91,1.04,1.28,1.04,2.19,0,1.28-1.09,3.63-.71,4.64.4,1.04-.04,2.57.41,3.48-.25.16-.62.43-.41.79.71,1.23,1.62,3.06,2.49,3.19-.21,1.7.95,2.2,1.53,3.65.12.33,0,.79.33.91,1.49.57,3.61,1.44,4.23,2.69h-.08v.29c.29.95.66,1.2,1.04,1.95.25.5.22,1.65.71,1.97.72.47,1.4,1.35,2.02,2.23.36.51-.62.36-.82.36.41.62,1.32.5,1.9,1.08.42.42.74.87,1.2,1.32v1.08c.12.21.17.21.41.37.46.29.86,1.27,1.6,1.27.05.17.59.88.68.88.12,0,.29-.41.29-.62,0-.33-.5-1.03-.83-.7-.75-.5-1-1.57-1.32-2.57-.29-.87-1.12-1.33-1.41-2.28-.21-.7-.29-1.12-.87-1.7-.41-.41-.96-.41-1.25-1.04-.33-.7-.74-1.24-.74-2.11,0-.12-.04-.37.08-.54.54.54,1.2.5,1.9.83.33.17.25,1.08.62,1.45.37.37.25,1.08.62,1.45.46.45.87.91,1.41,1.45.12-.12.08-.08.45,0,0,1,1.29,1.08,1.66,1.82.21.46-.08.87.25,1.2.41.42,1.08.58,1.49,1,.91.91,2.32,2.11,2.82,3.6.08.29.41.42.41.95,0,.45-.41.7-.41,1.16,0,.38.25.83.62.83.12.54,1.41.83,1.91,1.33.12.12.21.16.45.29.54.25.83.17,1.37.41.58.29.7.79,1.28.95.46.13.75-.12,1.2.09.41.2,1.82,1.2,2.32,1.2.33,0,.62-.08.95.08.16.08.5.37.83.37.7,0,.83-.83,1.57-.83.33,0,.58.13.91.33h.25c1.12.54,1.28,1.49,2.57,2.11.83.41,1.41.21,2.2.58.54.25.95.7,1.74.7.29,0,.5-.21.79-.21h.25c.25.99.95,1.37,1.61,2.03.21.21.42.29.54.7.21.63-.21,1.21.42,1.62h.41c-.08-.08-.08-.25,0-.37.04,0,1.45.87,1.58,1.12.16.33.16.75.74.87,0,.08.13.25.21.25.29,0,.95-.25,1.24.04.33.33.75,1.12,1.41,1.12.33,0,.54-.21.62-.62-.08-.04-.33-.21-.33-.37,0-.25,1.16-1.08,1.45-1.08.46,0,.58.54,1.04.75-.08.16-.25.25-.25.42,0,.12.38.24.46.32.1.05.99-.88,1.04-.99-.66-.49-1.17-1.33-2.33-1.33-.99,0-1.53.83-2.61.83-.71,0-.71-.79-1.16-.99-.66-.33-1.53-.7-1.53-1.62v-2.53c.24-.41.29-1.45.29-1.82v-.62c-.75-.16-1-.87-1.99-.87-1.45,0-2.57.25-3.93.25-.25,0-.5-.16-.5-.45v-.21c.25-.25.74-.42.74-.83v-1.99h.33v.29c.25-.42.5-.71.5-1.37,0-.79.7-1.53.7-2.11v-.37c-.25,0-.79-.04-.95-.09-.17-.08-.46-.12-.83-.12-1.12,0-2.48.41-2.48,1.61,0,.62-.71,1.16-.87,1.66-.04.17-.24.66-.58.66-.16,0-.33-.25-.78-.25-.83,0-1.49.58-2.28.58-.33,0-.33-.37-.7-.5-1.08-.33-1.08-1.03-1.82-1.78-.29-.29-.83-.87-1-1.2-.16-.37.04-.62-.12-.99-.08-.17-.42-.5-.33-.83v-2.32c.12-.62.41-.91.41-1.66,0-.25-.08-.42-.17-.67l-.02-.1s.07.01.11.02c0-.12-.21-.29-.21-.41,0-1.24.54-2.36,1.45-2.69.41-.17.79.13,1.12-.21.5-.5,1.08-1.53,2.28-1.53.46,0,.7.41,1.16.41.25,0,.37-.33.62-.33.83,0,1.82,1.41,2.99.83-.5-.33-.13-.7-.09-1.33-.25.12-.16.12-.58,0,.7-.25,1.58-.17,2.24-.33,0,.12.17.33.29.33.33,0,.46-.33,1.03-.33,1,0,1.45.96,2.19.96.38,0,.54-.54.91-.54,1.82,0,1.32,2.53,1.99,3.85.33.66.74.87,1.24,1.53.25.37.21,1.03.83,1.03.7,0,.91-.79.91-1.66,0-.75-.37-1.16-.5-1.66v-.2c0-1.33-1.16-1.74-1.16-3.11,0-3.01,2.48-3.8,4.42-4.9l-.11-.08c.25-.25.21-.37.7-.54.33-.08.55-.4,1.04-.5.23-.04.36-.29.48-.46l-.48-.29v-.33c.37,0,.56.04.64-.42-.21-.04-.41-.07-.57-.36.21,0,.55-.18.55-.51v-.41h-.29c-.25-.25,0-.21,0-.62s-.21-1.16-.21-1.45c0,0-.04-.33.04-.54.08.41.45,1.08.45,1.37v.45c0,.09.08.25.17.25.12,0,.95-1.45.95-1.7,0-.33-.29-.46-.37-.79l.21-.21c.08.08.16.33.29.33.29,0,1.08-1.45,1.16-1.78,0,0-.37-.29-.37-.5,0-.12.12-.25.25-.29.12,0,.25.04.37.04.58,0,.99,0,1.57-.21-.29-.21-.66,0-1.04,0h-.41c.83-.54,2.24-.29,3.07-.91.17.16.87,0,1.37-.13v-.29s-.37.29-.46.29c-.25,0-.41-.54-.41-.74-.12-.04-.17-.25-.17-.38,0-1.57,1.41-2.03,2.07-2.69.42-.21.46,0,.95,0,.58,0,1.04-.25,1.32-.71-.08-.1-.13-.21-.19-.32l-.02-.1v-.12c.09.04.29,0,.42,0,.25,0,1.28.16,1.66-.08.37-.25.37-.79.99-.83,0,.58-.04.62.62.62-.95.08-2.44.75-2.44,1.66,0,.37.58,1.04.83,1.04.33,0,1.1-1.11,1.93-1.36.21-.04,3.04-1.12,3.04-1.46,0-.46-1.08-.5-1.32-.5-1.2,0-3.11-1.16-3.11-2.2,0-.25.33-.58.42-.99-.21,0-.66-.12-1.04-.12.25-.33,1.74-.54,1.74-1.37s-1.28-.62-2.15-.62c-1.82,0-2.65,1.28-3.89,1.45.54-1.12,1.41-.75,2.32-1.66.58-.58.17-.95,1.04-1.24,1.57-.5,2.49-.21,4.06-.21,2.07,0,3.2.68,4.43-.91.6-.77,3.93-.96,3.93-2.28,0-.95-.33-1.37-.7-1.99Zm-32.27,14.91c.12-.58.46-.95.46-1.53,0-.5-1.53-1.24-1.87-1.24-.68,0,.01,1.01-1.5,1.1-.46.03-.45,1.28-.45,1.8v1.32c0,.54-.21,1.78-.83,1.78-.46,0-.95-.37-.95-.83,0-1.08.33-3.19,1.03-4.1-.41,0-.58.33-1,.58.08-.83,1.74-1.99,2.65-1.99.33,0,1.24.21,1.86,0v-.5c-.87,0-1.37-.54-2.36-.54-.46,0-.62.42-1.16.42-.29,0-.66-.21-.71-.5h-.83c.17-.33.46-.45.46-1.03-.62.12-1.37.91-1.82.91-.37,0-.42.54-1.12.54-.33,0-.46-.04-.62-.42-.29.04-.46.17-.75.29h-.62c.96-1.2,2.11-1.62,3.23-2.36.54-.17.62,0,1.08-.21.42-.21.25-.87.66-.87.5,0,.83.75.99.91.08-.17.04-.5.04-.58h.33c.25,0,1.99,1.41,2.07,1.57.25.5,0,.91.34,1.24.95.96,2.23.75,3.27,1.41h1.08c.5.33,1.12.74,1.12,1.37,0,.29-.17.49-.41.49-.5,0-.99-.54-1.16-.7-.17.66-.54,2.65-1.12,2.65-.41-.33-.41-.62-.58-1.28-.41.12-.33.29-.83.29Zm1.08,3.44c-.41,0-.58-.62-.58-1.03.12.21.37.5.62.5.37,0,.42-.25.58-.41.37-.37.99-.33,1.57-.33.53,0,.78.29.98.17-.95.47-2.33,1.11-3.18,1.11Zm3.41-1.22c.17-.09.32-.17.45-.23-.04-.11-.07-.22-.11-.33.04.1.08.21.11.33-.13.06-.28.14-.45.23Zm.53-1.26c-.21,0-.21.04-.5.04.05.08.1.18.15.3-.06-.14-.24-.23-.24-.38,0-.21.41-.29.54-.33.91-.29,2.86-.79,3.89-.79,0,1.56-2.65,1.16-3.85,1.16Zm-.23.62c-.03-.08-.06-.15-.09-.22.03.07.06.14.09.22Zm14.66-3.42c.02.06.04.11.07.17-.03-.06-.05-.11-.07-.17Zm-.45-2.88c-.05-.15-.11-.3-.19-.44.08.14.14.29.19.44Zm.37,2.62c-.02-.07-.03-.13-.04-.2.01.07.03.13.04.2Zm-.09-.47c0-.07-.02-.15-.02-.22,0,.08.02.15.02.22Zm-.05-.52c-.01-.13-.02-.26-.03-.39,0,.13.02.26.03.39Zm-.05-.64c0-.1-.02-.2-.04-.3.01.1.03.2.04.3Zm-.06-.5c-.02-.11-.05-.21-.07-.31.03.1.05.21.07.31Z"/><path class="cls-1" d="m49.61,63.92c.21,0,.33-.12.33-.41,0-.91-1.12-1.04-.99-2.15-.87-.17-1.08-.17-1.08.83.5-.33.25-.13.91,0-.12.21,0,.54,0,.83,0,.04.46.91.83.91Z"/><path class="cls-1" d="m46.63,59.78c-.08.04-.42.13-.42,0-.2-.66,0-.66,0-1.74-.58.33-.2,0-.95,0-.16,0-.5.08-.5.41,0,.62.5,1.16,1.12,1.24,0,.66.17,1.16.66,1.66.41-.41,0-1,.08-1.58Z"/><path class="cls-1" d="m56.49,72.41c.66.41,2.11,1.53,3.06,1.53h.37v-.37c-1.08-1.07-2.07-2.07-3.85-2.65-.29-.08-.66-.58-1.12-.58-.2,0-.41.12-.58.2h.17s.41.12.62.17c-.04.12-.21.29-.41.37.17.5,1.32.91,2.15.91-.12.12-.33.12-.41.41Z"/><path class="cls-1" d="m50.27,66.78c0-.21-.21-.29-.21-.49,0-.42.08-.67,0-.91-.08.21-.25.54-.54.54-.25,0,.25-.45.25-.5-.37-.04-.58-.29-.96-.29v.33c.17.25.34.74.5.74.25,0,.33.46.66.54,0,.08-.17.21-.17.45,0,.33.25.79.58.79.42,0-.33-.62-.33-.79s.21-.25.21-.41Z"/><path class="cls-1" d="m25.5,58.87h.5v.5c-.75.37-.99.66-1.62,1.16-.37-.29-.58-.33-.87-.54v-.49c.71-.21,1.24-.62,1.99-.62Z"/><path class="cls-1" d="m132.3,72.79c.33,0,.46-.04.58-.25-.87-.5-1.66-1.28-2.94-.99.5.37,1.7,1.24,2.36,1.24Z"/><path class="cls-1" d="m9.35,54.81c.17-.37.29-.29.62-.29.5,0,.54.29.62.7h-1.37c-.16-.12-.41-.25-.49-.42h.62Z"/></svg>