<?xml version="1.0" encoding="UTF-8"?><svg id="Layer_1" xmlns="http://www.w3.org/2000/svg" viewBox="0 0 200 200"><defs><style>.cls-1{fill:#fff;}}</style></defs><path class="cls-1" d="m55.47,19.06v-.48c0-.64-.48-1.13-.48-1.77,0-.97.4-1.29.4-2.09,0-1.7-1.45-1.46-1.45-2.9,0-1.13,1.61-1.62,2.02-2.26.64.16.4.16.97,0v-.48c0-.16.32-.41.48-.41,0-.8.8-1.05,1.29-1.37.48-.33.56-1.37.72-2.02.4-1.29,1.13-1.54,2.18-1.85,1.94-.64,3.23-.97,5.25-1.62,1.05-.33,1.29-1.53,2.33-1.53.41,0,.73.89.73.97,0,.64-.48.96-.81.96-.24,1.21-.73,2.59-.73,3.3,0,.89.44,2.45,1.33,2.45.33,0,.77-1,.77-1.31,0-.97-.97-1.53-.97-2.5,0-1.21,1.29-1.05,2.02-1.53h1.93c-.32-.97-1.54-.56-1.54-1.53l1.42.02c.32,1.3,2.13,1.75,3.34,1.99,0,.8.48,1.37.97,1.45h4.35c0,.73.97.89,1.61.89,1.21-.16,2.01-.16,2.5-1.13.08-.25,1.77-.25,2.02-.41.8,0,2.26.25,2.26.25-.32.24-.97.33-1.21.17v.65c.56,1.12,2.26,1.36,3.47,1.77,1.05.32.8,1.53,1.13,2.58h2.26c1.53,1.53,2.25,1.29,3.22,3.3.16.33.8.49,1.21.49.56,2.26,3.95,2.01,6.13,2.42h2.09c.56.24,1.85.88,2.66.88v.16h.49c1.29,0,2.98,2.66,4.35,2.99,0,.97,1.05,3.54,1.45,4.43.4.81,1.45.81,1.45,1.61-1.29,1.61-3.62,2.42-3.62,4.84,0,.81.72.73,1.12.88.81.41,1.21,1.05,1.37,1.86h1.94c0,.24.16.89.4.89.32,0,.64-.56.89-.96.8-1.29,1.77-2.99,3.06-2.99,1.45,0,4.36,1.53,5.4,2.18.65.4,1.38.24,1.54.88.24.73.16,1.29.16,2.02h.56c.73-.32,1.05-.89,1.78-.89,1.7,0,2.02,1.29,3.63,1.29l3.06-.4c1.53.33,2.9.89,3.79,1.29.72,1.21,3.22,3.47,4.51,3.87,1.13.32,1.85-.16,2.98.16,1.61.49,2.02,2.18,2.02,3.87,0,5.97-3.28,7.55-5.46,10.85-.48.73-.83.93-1.32,1.65-.8,1.21-1.7,1.36-2.5,2.17-1.21,1.21-.01,3.82-.01,5.75,0,1.45-.55,2.8-.55,3.84,0,.4-.33.72-.41.97-.32.4-1.05,1.2-1.05,1.85,0,.81-.24,2.42-.4,2.74-1.21,1.86-1.61,2.66-2.83,4.28-.32.48-.24,1.45-.4,1.77-.48.97-2.18,2.1-3.55,2.1-1.53,0-2.74-.08-3.95.48-.48.25-.56.65-.81.88-1.93,1.95-3.95.81-5.4,3.07-.65,1.05-1.7,1.05-2.34,1.7-1.05,1.05-.89,2.18-.89,3.7v3.79c-1.61.81-2.42,2.18-3.22,3.87v-.08c-.56,1.05-.48,1.61-1.13,2.66-1.45,2.17-3.06,2.42-4.43,4.51-1.62,2.42-2.23,6.45-5.94,6.45-1.29,0-3.09-.88-3.66-.88-1.12,0-2.18-.96-3.39-.96-.24,0-.65.16-.65.4,0,.72,1.21,1.12,1.45,1.37.65.64.65,1.53.97,2.5.24.89,1.53.89,1.53,1.77,0,.97,0,1.51-.4,2.15-.72,1.13-1.29,1.64-2.1,2.45-1.37,1.37-3.06.97-5,1.61-1.29.4-3.95-.49-4.67.24-1.05,1.04-.24,3.46-.81,4.6v-.16.97c0,.4-1.29.96-1.85.96-1.69,0-2.02-1.13-3.63-1.13-.57,0-.81.56-.81.97,0,1.12.97,3.23,1.7,3.23.41,0,.89-.49,1.13-.57.32.32.73.4.73.81,0,.48-.64,1.04-.81,1.04-.97,0-1.29-.73-2.1-.73,0,.89.48,1.05.88,1.21-1.45,1.45-1.45,2.9-1.94,4.92-.16.89-1.61.97-2.18,1.05-1.29.32-2.42,1.46-2.42,2.82,0,3.15,3.62,2.02,3.62,4.52,0,2.26-2.01,2.5-3.14,3.63-.65.64-.41,1.69-.89,2.74-.57,1.12-1.86.64-2.58,1.36-.97.97-1.37,2.1-1.37,3.63,0,.81.73,1.77,1.21,1.85,1.45.81,1.37,4.52,2.42,5.56,1.77,1.78,3.95,2.5,6.13,3.55-.32.48-.8.24-1.29.24-1.21,0-3.23,1.53-3.95,1.53h-.89c-.24,0-.56.32-.81.32h-2.25c-1.86,0-1.21-2.18-2.5-2.58-1.21-.4-2.98-.4-2.98-1.85h-1.53c-.64,0-.81-.65-.89-1.05-2.26,0-2.9-1.13-3.95-2.17-.24-.25-.72-.65-.72-.81,0-.73,1.45-.65,1.53-1.37-.24-.08-.41-.24-.65-.4.24-.4.56-.89.56-1.37,0-1.94-2.18-1.61-2.18-3.31v-1.13c0-1.77-1.21-4.59-1.21-5.96,0-1.45,1.85-2.02,1.85-3.31,0-.65-.97-1.94-1.13-2.83v-.81h.08c0-.48.32-.88.73-.88,1.45,0,.88,1.45,2.09,1.45l2.66-11.93v-1.22c-.24,0-.49-.08-.73,0-.56.25-.65.89-1.21.89-.65,0-1.13-1.85-1.13-2.74,0-1.54.56-2.18.81-3.63.56,0,.8-.24.8-.48,0-.49-.48-.89-.48-.89-.32,0-.41-2.26-.41-2.82,0-1.85,1.13-3.71,1.85-4.84.33-.56.49-1.7.89-2.26.24-.32.64-.24.73-.56.56-1.86.56-3.23,1.05-5.16l-.09-6.04c-.48-1.46.41-2.58.41-3.87,0-3.07,1.85-5.09,1.85-7.82v-.73c0-.56.4-2.02.56-2.82v-3.54c0-1.14.73-3.31.73-4.6,0-.81-.41-5.57-.65-6.45-.72-1.93-2.02-3.14-3.47-3.87-1.21-.56-2.09-.4-2.98-1.29-.97-.97-1.45-1.29-2.58-1.61-2.26-.72-3.39-1.86-4.84-3.31-.64-.65-.32-1.53-.32-2.5,0-1.29-1.21-1.93-1.53-3.07-.64-1.93-2.26-3.38-2.82-5.16-.56-1.86-1.05-2.91-1.77-4.44-.24-.48-.81-.32-1.05-.56-.56-.56-.73-1.69-.97-2.26-.24-.49-.89-.32-1.21-.65-.89-.89-2.02-2.49-2.02-3.95,0-.97.56-2.1.89-2.42.72-1.21,2.18-1.53,2.5-2.82-.72-.49-.64-.08-1.21-.08-1.13,0-1.29-1.61-1.29-2.75,0-1.85,2.03-1.52,1.69-5.07,2.18,0,2.74-2.18,3.39-3.47.89-1.77,2.98-1.21,3.47-3.38-.4-.16-.81-.57-.81-.81l.32-.64v.08Z"/></svg>